<?xml version="1.0" encoding="UTF-8" standalone="no"?>
<!-- Created with Inkscape (http://www.inkscape.org/) -->

<svg
   xmlns:dc="http://purl.org/dc/elements/1.1/"
   xmlns:cc="http://creativecommons.org/ns#"
   xmlns:rdf="http://www.w3.org/1999/02/22-rdf-syntax-ns#"
   xmlns:svg="http://www.w3.org/2000/svg"
   xmlns="http://www.w3.org/2000/svg"
   xmlns:sodipodi="http://sodipodi.sourceforge.net/DTD/sodipodi-0.dtd"
   xmlns:inkscape="http://www.inkscape.org/namespaces/inkscape"
   width="210mm"
   height="297mm"
   id="svg4433"
   version="1.1"
   inkscape:version="0.48.4 r9939"
   sodipodi:docname="Neues Dokument 7">
  <defs
     id="defs4435" />
  <sodipodi:namedview
     id="base"
     pagecolor="#ffffff"
     bordercolor="#666666"
     borderopacity="1.0"
     inkscape:pageopacity="0.0"
     inkscape:pageshadow="2"
     inkscape:zoom="0.35"
     inkscape:cx="350"
     inkscape:cy="520"
     inkscape:document-units="px"
     inkscape:current-layer="layer1"
     showgrid="false"
     inkscape:window-width="505"
     inkscape:window-height="453"
     inkscape:window-x="26"
     inkscape:window-y="26"
     inkscape:window-maximized="0" />
  <metadata
     id="metadata4438">
    <rdf:RDF>
      <cc:Work
         rdf:about="">
        <dc:format>image/svg+xml</dc:format>
        <dc:type
           rdf:resource="http://purl.org/dc/dcmitype/StillImage" />
        <dc:title></dc:title>
      </cc:Work>
    </rdf:RDF>
  </metadata>
  <g
     inkscape:label="Ebene 1"
     inkscape:groupmode="layer"
     id="layer1">
    <g
       id="Ebene_6"
       transform="translate(-61.307143,153.52647)">
      <path
         stroke-miterlimit="10"
         d="M 537.4,422.5 H 341.3 C 328.5,422.5 318,412 318,399.2 V 285.6 c 0,-10.5 8.5,-19 19,-19 h 202.8 c 10.5,0 19.1,8.6 19.1,19.1 v 115.2 c 0,11.8 -9.7,21.6 -21.5,21.6 z"
         id="path3329"
         inkscape:connector-curvature="0"
         style="fill:none;stroke:#1d1d1b;stroke-width:7;stroke-miterlimit:10" />
      <path
         stroke-miterlimit="10"
         d="m 555.8,305.7 c -47.6,-49.8 -98.8,-31 -122.3,-17.6 -33.2,18.9 -32.8,37.4 -32.8,37.4 -2.7,5.8 15.5,24.3 25.2,28.3"
         id="path3331"
         inkscape:connector-curvature="0"
         style="fill:none;stroke:#1d1d1b;stroke-width:7;stroke-miterlimit:10" />
      <path
         stroke-miterlimit="10"
         d="m 452.8,359.9 c 0,0 9.3,2.8 25.2,0.3 17,-2.7 34.5,-8.4 46.3,-16.3 13.8,-9.3 32,-29.6 31.2,-37.5"
         id="path3333"
         inkscape:connector-curvature="0"
         style="fill:none;stroke:#1d1d1b;stroke-width:7;stroke-miterlimit:10" />
      <path
         stroke-miterlimit="10"
         d="m 412.3,343.7 c 0,0 -5.2,-6.5 2.7,-15.7 6.8,-8 24.8,-31.1 51.8,-33.7 28.5,-2.7 45.2,-2.3 57.7,6.7 18.3,13.2 21.7,20 21.2,21.7"
         id="path3335"
         inkscape:connector-curvature="0"
         style="fill:none;stroke:#1d1d1b;stroke-width:7;stroke-miterlimit:10" />
      <line
         stroke-miterlimit="10"
         x1="514.5"
         y1="294.39999"
         x2="518.70001"
         y2="282.20001"
         id="line3337"
         style="fill:none;stroke:#1d1d1b;stroke-width:7;stroke-miterlimit:10" />
      <line
         stroke-miterlimit="10"
         x1="523.5"
         y1="298.10001"
         x2="528.5"
         y2="286.10001"
         id="line3339"
         style="fill:none;stroke:#1d1d1b;stroke-width:7;stroke-miterlimit:10" />
      <path
         stroke-miterlimit="10"
         d="m 413.5,376.4 c 0,0 17.3,-29 17.6,-34.3 0.3,-5.3 26.1,-7.8 28,-1.1 1.9,6.8 -12.6,34.3 -15.4,35.1"
         id="path3341"
         inkscape:connector-curvature="0"
         style="fill:none;stroke:#1d1d1b;stroke-width:7;stroke-miterlimit:10" />
      <path
         stroke-miterlimit="10"
         d="m 449,335.4 c 0,0 -4.7,-12.6 6.3,-19.5 14.8,-9.3 47.3,-11.7 55.6,1.5 1.7,2.7 -3.4,6.9 -6.1,9.8"
         id="path3343"
         inkscape:connector-curvature="0"
         style="fill:none;stroke:#1d1d1b;stroke-width:7;stroke-linecap:round;stroke-miterlimit:10" />
      <path
         stroke-miterlimit="10"
         d="m 457.2,331.9 c 0,0 0.5,-6.5 8.2,-10 8.2,-3.8 32,-8.5 37.9,3.3"
         id="path3345"
         inkscape:connector-curvature="0"
         style="fill:none;stroke:#1d1d1b;stroke-width:7;stroke-linecap:round;stroke-miterlimit:10" />
      <line
         stroke-miterlimit="10"
         x1="380"
         y1="385.89999"
         x2="365.20001"
         y2="341.39999"
         id="line3347"
         style="fill:none;stroke:#1d1d1b;stroke-width:7;stroke-miterlimit:10" />
      <path
         stroke-miterlimit="10"
         d="m 377.2,338.9 16.3,44 9.8,-4.8 48.3,-2.3 c 0,0 -9,13 -8.5,15.5 0.5,2.5 1,17.9 3.8,18.3 2.8,0.4 -64.3,0.4 -64.3,0.4 0,0 -0.8,-3.9 -5.5,-5.1 -4.7,-1.2 -3,-16.7 -3,-16.7 l 4.7,-3.2"
         id="path3349"
         inkscape:connector-curvature="0"
         style="fill:none;stroke:#1d1d1b;stroke-width:7;stroke-miterlimit:10" />
      <path
         stroke-miterlimit="10"
         d="m 380.7,336.9 -52.3,14 c 0,0 -7.8,-11.5 -6,-13.7 1.8,-2.2 5.2,-3.8 5.2,-3.8 l -1.2,-4.5 9.3,-3.2 4.5,3.2 35.5,-12.2 c 0,0 -3.3,5.2 -1.3,10.5 1.8,4.7 7.3,11.5 9.2,11 1.9,-0.5 9.5,-4 10.7,-9 0.8,-3.2 2.5,-21 -16.2,-14.3"
         id="path3351"
         inkscape:connector-curvature="0"
         style="fill:none;stroke:#1d1d1b;stroke-width:7;stroke-linecap:round;stroke-miterlimit:10" />
      <line
         stroke-miterlimit="10"
         x1="365.29999"
         y1="327.89999"
         x2="366.5"
         y2="321.20001"
         id="line3353"
         style="fill:none;stroke:#1d1d1b;stroke-width:7;stroke-linecap:round;stroke-miterlimit:10" />
      <line
         stroke-miterlimit="10"
         x1="334.20001"
         y1="340.10001"
         x2="350"
         y2="335.39999"
         id="line3355"
         style="fill:none;stroke:#1d1d1b;stroke-width:5;stroke-linecap:round;stroke-miterlimit:10" />
      <line
         stroke-miterlimit="10"
         x1="393.79999"
         y1="394.60001"
         x2="426.70001"
         y2="393.60001"
         id="line3357"
         style="fill:none;stroke:#1d1d1b;stroke-width:7;stroke-linecap:round;stroke-miterlimit:10" />
      <line
         stroke-miterlimit="10"
         x1="400.29999"
         y1="387.20001"
         x2="405"
         y2="387.20001"
         id="line3359"
         style="fill:none;stroke:#1d1d1b;stroke-width:5;stroke-linecap:round;stroke-miterlimit:10" />
      <line
         stroke-miterlimit="10"
         x1="411.60001"
         y1="386.60001"
         x2="416.79999"
         y2="386.60001"
         id="line3361"
         style="fill:none;stroke:#1d1d1b;stroke-width:5;stroke-linecap:round;stroke-miterlimit:10" />
      <line
         stroke-miterlimit="10"
         x1="424.39999"
         y1="386.60001"
         x2="429.39999"
         y2="386.60001"
         id="line3363"
         style="fill:none;stroke:#1d1d1b;stroke-width:5;stroke-linecap:round;stroke-miterlimit:10" />
      <path
         stroke-miterlimit="10"
         d="m 457.8,374.5 c 0,0 -4.5,4.2 -5.8,11 -1.8,9.2 -2.5,12.5 4.5,20.2 3.7,4.1 6.3,3.9 10.2,1.5 3.8,-2.4 5.9,-7.6 4.8,-18 -1.2,-11.8 -1.8,-9.5 -3.8,-13.2 -3,-5.5 -9.9,-1.5 -9.9,-1.5 z"
         id="path3365"
         inkscape:connector-curvature="0"
         style="fill:none;stroke:#1d1d1b;stroke-width:5;stroke-miterlimit:10" />
      <path
         stroke-miterlimit="10"
         d="m 496.3,284.4 c 0,0 -6,-0.8 -6.8,-0.3"
         id="path3367"
         inkscape:connector-curvature="0"
         style="fill:none;stroke:#1d1d1b;stroke-width:7;stroke-linecap:round;stroke-miterlimit:10" />
      <line
         stroke-miterlimit="10"
         x1="477.5"
         y1="283.10001"
         x2="468.79999"
         y2="283.89999"
         id="line3369"
         style="fill:none;stroke:#1d1d1b;stroke-width:7;stroke-linecap:round;stroke-miterlimit:10" />
      <line
         stroke-miterlimit="10"
         x1="457.5"
         y1="287.10001"
         x2="453.5"
         y2="288.39999"
         id="line3371"
         style="fill:none;stroke:#1d1d1b;stroke-width:7;stroke-linecap:round;stroke-miterlimit:10" />
      <path
         stroke-miterlimit="10"
         d="m 471.5,338.2 c 0,0 4.2,-4.3 6.8,-4.3 2.7,0 9.7,0.7 9.7,1.2"
         id="path3373"
         inkscape:connector-curvature="0"
         style="fill:none;stroke:#1d1d1b;stroke-width:7;stroke-linecap:round;stroke-miterlimit:10" />
      <path
         stroke-miterlimit="10"
         d="m 475.2,341.6 c 0,0 3,1.7 5,1 2,-0.7 5.2,-3.5 5.2,-3.5"
         id="path3375"
         inkscape:connector-curvature="0"
         style="fill:none;stroke:#1d1d1b;stroke-width:7;stroke-linecap:round;stroke-miterlimit:10" />
      <path
         stroke-miterlimit="10"
         d="m 457.5,334.1 c 0,0 11.7,1.5 14,4.2"
         id="path3377"
         inkscape:connector-curvature="0"
         style="fill:none;stroke:#1d1d1b;stroke-width:7;stroke-linecap:round;stroke-miterlimit:10" />
      <path
         stroke-miterlimit="10"
         d="m 487.7,336.4 c 0,0 10,-9.3 13.3,-8.3"
         id="path3379"
         inkscape:connector-curvature="0"
         style="fill:none;stroke:#1d1d1b;stroke-width:7;stroke-linecap:round;stroke-miterlimit:10" />
      <path
         stroke-miterlimit="10"
         d="m 448.5,411.3 c 0,0 5.8,-6.3 9.5,-4"
         id="path3381"
         inkscape:connector-curvature="0"
         style="fill:none;stroke:#1d1d1b;stroke-width:5;stroke-linecap:round;stroke-miterlimit:10" />
      <path
         stroke-miterlimit="10"
         d="m 462,382.4 c 0,0 -4.2,8.2 -0.8,14.8"
         id="path3383"
         inkscape:connector-curvature="0"
         style="fill:none;stroke:#1d1d1b;stroke-width:5;stroke-linecap:round;stroke-miterlimit:10" />
      <line
         stroke-miterlimit="10"
         x1="461.70001"
         y1="390.39999"
         x2="470"
         y2="389.5"
         id="line3385"
         style="fill:none;stroke:#1d1d1b;stroke-width:5;stroke-linecap:round;stroke-miterlimit:10" />
      <line
         stroke-miterlimit="10"
         x1="383.29999"
         y1="346.70001"
         x2="409.5"
         y2="341.89999"
         id="line3387"
         style="fill:none;stroke:#1d1d1b;stroke-width:5;stroke-linecap:round;stroke-miterlimit:10" />
      <line
         stroke-miterlimit="10"
         x1="389.5"
         y1="361.39999"
         x2="422.29999"
         y2="356.60001"
         id="line3389"
         style="fill:none;stroke:#1d1d1b;stroke-width:5;stroke-linecap:round;stroke-miterlimit:10" />
      <line
         stroke-miterlimit="10"
         x1="393.5"
         y1="350.89999"
         x2="412.20001"
         y2="347.70001"
         id="line3391"
         style="fill:none;stroke:#1d1d1b;stroke-width:5;stroke-linecap:round;stroke-miterlimit:10" />
      <line
         stroke-miterlimit="10"
         x1="449.79999"
         y1="338.70001"
         x2="440.29999"
         y2="364.20001"
         id="line3393"
         style="fill:none;stroke:#1d1d1b;stroke-width:5;stroke-linecap:round;stroke-miterlimit:10" />
      <line
         stroke-miterlimit="10"
         x1="430.5"
         y1="351.10001"
         x2="437.70001"
         y2="350.60001"
         id="line3395"
         style="fill:none;stroke:#1d1d1b;stroke-width:5;stroke-linecap:round;stroke-miterlimit:10" />
      <line
         stroke-miterlimit="10"
         x1="428.70001"
         y1="356.89999"
         x2="432.79999"
         y2="356.89999"
         id="line3397"
         style="fill:none;stroke:#1d1d1b;stroke-width:5;stroke-linecap:round;stroke-miterlimit:10" />
      <line
         stroke-miterlimit="10"
         x1="425.5"
         y1="362.70001"
         x2="429.29999"
         y2="362.39999"
         id="line3399"
         style="fill:none;stroke:#1d1d1b;stroke-width:5;stroke-linecap:round;stroke-miterlimit:10" />
      <ellipse
         stroke-miterlimit="10"
         cx="351.10001"
         cy="289.89999"
         rx="7.0999999"
         ry="7.3000002"
         id="ellipse3401"
         d="m 358.20001,289.89999 c 0,4.03168 -3.17878,7.3 -7.1,7.3 -3.92123,0 -7.1,-3.26832 -7.1,-7.3 0,-4.03167 3.17877,-7.3 7.1,-7.3 3.92122,0 7.1,3.26833 7.1,7.3 z"
         sodipodi:cx="351.10001"
         sodipodi:cy="289.89999"
         sodipodi:rx="7.0999999"
         sodipodi:ry="7.3000002"
         style="fill:#ffffff;stroke:#1d1d1b;stroke-width:7;stroke-miterlimit:10" />
      <ellipse
         transform="matrix(0.989,-0.1482,0.1482,0.989,-39.1209,55.3018)"
         stroke-miterlimit="10"
         cx="351.60001"
         cy="290.20001"
         rx="19.299999"
         ry="4.1999998"
         id="ellipse3403"
         d="m 370.90001,290.20001 c 0,2.3196 -8.64091,4.2 -19.3,4.2 -10.6591,0 -19.3,-1.8804 -19.3,-4.2 0,-2.31959 8.6409,-4.2 19.3,-4.2 10.65909,0 19.3,1.88041 19.3,4.2 z"
         sodipodi:cx="351.60001"
         sodipodi:cy="290.20001"
         sodipodi:rx="19.299999"
         sodipodi:ry="4.1999998"
         style="fill:#1d1d1b;stroke:#1d1d1b;stroke-width:7;stroke-miterlimit:10" />
      <ellipse
         transform="matrix(0.9232,0.3844,-0.3844,0.9232,188.894,-171.1674)"
         stroke-miterlimit="10"
         cx="522.70001"
         cy="387"
         rx="7.0999999"
         ry="7.3000002"
         id="ellipse3405"
         d="m 529.80001,387 c 0,4.03168 -3.17878,7.3 -7.1,7.3 -3.92122,0 -7.1,-3.26832 -7.1,-7.3 0,-4.03168 3.17878,-7.3 7.1,-7.3 3.92122,0 7.1,3.26832 7.1,7.3 z"
         sodipodi:cx="522.70001"
         sodipodi:cy="387"
         sodipodi:rx="7.0999999"
         sodipodi:ry="7.3000002"
         style="fill:#ffffff;stroke:#1d1d1b;stroke-width:7;stroke-miterlimit:10" />
      <ellipse
         transform="matrix(0.9699,0.2433,-0.2433,0.9699,109.9815,-115.6001)"
         stroke-miterlimit="10"
         cx="522.90002"
         cy="387.39999"
         rx="19.299999"
         ry="4.1999998"
         id="ellipse3407"
         d="m 542.20002,387.39999 c 0,2.3196 -8.6409,4.2 -19.3,4.2 -10.65909,0 -19.29999,-1.8804 -19.29999,-4.2 0,-2.31959 8.6409,-4.2 19.29999,-4.2 10.6591,0 19.3,1.88041 19.3,4.2 z"
         sodipodi:cx="522.90002"
         sodipodi:cy="387.39999"
         sodipodi:rx="19.299999"
         sodipodi:ry="4.1999998"
         style="fill:#1d1d1b;stroke:#1d1d1b;stroke-width:7;stroke-miterlimit:10" />
      <path
         d="m 391.8,282.1 c -6.4,0 -6.4,10 0,10 6.4,0 6.4,-10 0,-10 z"
         id="path3409"
         inkscape:connector-curvature="0"
         style="fill:#1d1d1b" />
      <path
         d="m 355,372.6 c -6.4,0 -6.4,10 0,10 6.4,0 6.4,-10 0,-10 z"
         id="path3411"
         inkscape:connector-curvature="0"
         style="fill:#1d1d1b" />
      <path
         d="m 488.5,369.9 c -6.4,0 -6.4,10 0,10 6.4,0 6.4,-10 0,-10 z"
         id="path3413"
         inkscape:connector-curvature="0"
         style="fill:#1d1d1b" />
      <path
         d="m 405,286.4 c -5.1,0 -5.1,8 0,8 5.1,0 5.1,-8 0,-8 z"
         id="path3415"
         inkscape:connector-curvature="0"
         style="fill:#1d1d1b" />
      <path
         d="m 339.5,369.1 c -5.1,0 -5.1,8 0,8 5.1,0 5.1,-8 0,-8 z"
         id="path3417"
         inkscape:connector-curvature="0"
         style="fill:#1d1d1b" />
      <path
         d="m 540.5,356.6 c -6.4,0 -6.4,10 0,10 6.4,0 6.4,-10 0,-10 z"
         id="path3419"
         inkscape:connector-curvature="0"
         style="fill:#1d1d1b" />
      <path
         d="m 504,400.1 c -3.9,-5.1 -11.9,0.9 -8,6 3.9,5.2 11.9,-0.8 8,-6 z"
         id="path3421"
         inkscape:connector-curvature="0"
         style="fill:#1d1d1b" />
    </g>
  </g>
</svg>
