<?xml version="1.0" encoding="UTF-8" standalone="no"?>
<!-- Created with Inkscape (http://www.inkscape.org/) -->

<svg
   xmlns:dc="http://purl.org/dc/elements/1.1/"
   xmlns:cc="http://creativecommons.org/ns#"
   xmlns:rdf="http://www.w3.org/1999/02/22-rdf-syntax-ns#"
   xmlns:svg="http://www.w3.org/2000/svg"
   xmlns="http://www.w3.org/2000/svg"
   xmlns:sodipodi="http://sodipodi.sourceforge.net/DTD/sodipodi-0.dtd"
   xmlns:inkscape="http://www.inkscape.org/namespaces/inkscape"
   width="210mm"
   height="297mm"
   id="svg4031"
   version="1.1"
   inkscape:version="0.48.5 r10040"
   sodipodi:docname="spock_mirrored.svg">
  <defs
     id="defs4033" />
  <sodipodi:namedview
     id="base"
     pagecolor="#ffffff"
     bordercolor="#666666"
     borderopacity="1.0"
     inkscape:pageopacity="0.0"
     inkscape:pageshadow="2"
     inkscape:zoom="0.35"
     inkscape:cx="350"
     inkscape:cy="520"
     inkscape:document-units="px"
     inkscape:current-layer="layer1"
     showgrid="false"
     inkscape:window-width="1440"
     inkscape:window-height="855"
     inkscape:window-x="0"
     inkscape:window-y="23"
     inkscape:window-maximized="1" />
  <metadata
     id="metadata4036">
    <rdf:RDF>
      <cc:Work
         rdf:about="">
        <dc:format>image/svg+xml</dc:format>
        <dc:type
           rdf:resource="http://purl.org/dc/dcmitype/StillImage" />
        <dc:title />
      </cc:Work>
    </rdf:RDF>
  </metadata>
  <g
     inkscape:label="Ebene 1"
     inkscape:groupmode="layer"
     id="layer1">
    <g
       id="g3922"
       transform="matrix(-1,0,0,1,604.93999,-92.141261)">
      <path
         id="path3496"
         d="m 238.7,603.6 2.2,13 c 0,0 -5.3,6.3 -4.7,8.3 0.6,2 -37.5,48.7 -37.5,48.7 0,0 -0.8,10 1.3,12.7 4,5 36.5,4.7 36.5,4.7 l 105.2,-1.3 c 0,0 9.3,-2.7 9.6,-10.3 0.3,-7.6 0.3,-49.3 -1.9,-52.7 -2.2,-3.3 -36.7,-22 -36.7,-22 0,0 -6.5,-12.7 -8.7,-12 -2.2,0.7 -7.8,8.7 -9,9.3 -1.2,0.7 -29.3,13.3 -34.5,15 -5.3,1.7 -20.5,1 -17.1,1"
         stroke-miterlimit="10"
         inkscape:connector-curvature="0"
         style="fill:none;stroke:#1d1d1b;stroke-width:7;stroke-miterlimit:10" />
      <path
         id="path3498"
         d="m 292,552.6 c 0,0 8,1.7 10,-0.3 2,-2 7.3,-21.3 7.7,-24.3 0.3,-3 5.3,-28 3,-32.3 -2.3,-4.3 -6,-7 -6,-7"
         stroke-miterlimit="10"
         inkscape:connector-curvature="0"
         style="fill:none;stroke:#1d1d1b;stroke-width:5;stroke-linecap:round;stroke-miterlimit:10" />
      <path
         id="path3500"
         d="m 306.2,593.1 c 0,0 -6.3,-34.1 -4.7,-39.4"
         stroke-miterlimit="10"
         inkscape:connector-curvature="0"
         style="fill:none;stroke:#1d1d1b;stroke-width:7;stroke-linecap:round;stroke-miterlimit:10" />
      <path
         id="path3502"
         d="m 236.8,626.8 c 0,0 17,6 24.3,3.7 7.3,-2.3 53.3,-23.7 54.7,-26.7"
         stroke-miterlimit="10"
         inkscape:connector-curvature="0"
         style="fill:none;stroke:#1d1d1b;stroke-width:7;stroke-miterlimit:10" />
      <g
         id="g3504">
        <path
           id="path3506"
           d="m 220.2,522.5 c 0,3 -0.2,5.9 -0.4,8.9 -0.1,1.5 -0.2,2.9 -0.4,4.4 -0.1,1.5 -0.3,2.9 -0.5,4.4 -0.2,1.5 -0.3,2.9 -0.5,4.4 l -0.6,4.4 0,0.3 0,0.1 0,0.1 0,0 0,0 0,0 c 0,0.2 0,-0.3 0,-0.2 l 0,0.1 c 0,0 0,0.1 0,0 0,-0.1 0,-0.3 0,-0.3 0,-0.1 0,0 0.1,0.2 0.1,0.3 0.3,0.9 0.6,1.4 l 0.9,1.7 c 0.3,0.6 0.6,1.3 0.9,1.9 l -0.4,-0.3 c 0.5,0.5 1.1,0.9 1.6,1.4 0.9,0.8 0.9,2.2 0.1,3.1 -0.7,0.7 -1.7,0.9 -2.5,0.5 -0.6,-0.3 -1.3,-0.6 -1.9,-1 l -0.4,-0.3 c -0.8,-0.5 -1.4,-0.9 -2,-1.5 -0.6,-0.5 -1.2,-1.1 -1.7,-1.8 -0.5,-0.7 -1.1,-1.4 -1.5,-2.5 -0.2,-0.5 -0.4,-1.1 -0.5,-1.9 0,-0.2 0,-0.5 0,-0.8 l 0,-0.3 0,-0.1 0,-0.3 0,0 0,0 0,-0.1 0,-0.1 0.1,-0.3 0.8,-4.3 c 0.3,-1.4 0.6,-2.9 0.9,-4.3 0.3,-1.4 0.6,-2.9 1,-4.3 0.3,-1.4 0.7,-2.9 1,-4.3 0.7,-2.9 1.5,-5.7 2.4,-8.6 l 0,0 c 0.3,-0.8 1.1,-1.3 2,-1 0.5,0 0.9,0.6 0.9,1.3 z"
           inkscape:connector-curvature="0"
           style="fill:#1d1d1b" />
      </g>
      <g
         id="g3508">
        <path
           id="path3510"
           d="m 229.6,513.4 c 0,0 0.5,0.2 1.3,0.4 0.9,0.3 2.1,0.6 3.6,0.8 0.7,0.1 1.6,0.3 2.4,0.3 0.2,0 0.4,0 0.6,0 l 0.2,0 0,0 0,0 0,0 c 0.3,0 -0.3,0 -0.3,0 l 0,0 0,0 0.1,0 c 0,0 0.1,0 0,0 0,0 -0.1,0 -0.1,0 -0.1,0 0,0 0,0 l 0.1,0 c 0.2,-0.1 0.4,-0.2 0.6,-0.2 1.6,-0.8 3.5,-1.7 5.4,-2.6 1.9,-0.9 3.7,-1.8 5.5,-2.7 1.8,-0.8 3.5,-1.6 5.1,-2.2 0.8,-0.3 1.5,-0.6 2.2,-0.8 0.7,-0.2 1.4,-0.4 2,-0.5 0.6,-0.1 1.3,-0.1 1.8,-0.1 0.5,0.1 0.8,0.1 0.8,0.1 1.9,0.5 3,2.3 2.6,4.2 -0.5,1.9 -2.3,3 -4.2,2.6 0,0 0,0 0.1,0 0,0 -0.1,-0.1 -0.3,-0.1 -0.3,0 -0.6,0 -1.2,0.1 -0.5,0.1 -1.1,0.2 -1.8,0.4 -2.7,0.7 -6.5,2.3 -10.1,4 -1.9,0.9 -3.7,1.8 -5.5,2.6 -0.3,0.1 -0.5,0.2 -0.7,0.3 l -0.2,0.1 c -0.1,0 -0.1,0 -0.3,0.1 -0.2,0.1 -0.3,0.1 -0.5,0.1 l -0.2,0.1 0,0 -0.3,0 -0.1,0 -0.2,0 -0.3,0 -0.4,0 c -0.3,0 -0.5,0 -0.8,0 -0.9,-0.1 -1.8,-0.1 -2.6,-0.1 -0.8,0 -1.5,0 -2.1,0 -0.6,0 -1.2,0 -1.7,0 -0.9,0.1 -1.5,0.1 -1.5,0.1 l -0.1,0 c -2.1,0.3 -4.1,-1.2 -4.3,-3.4 -0.3,-2.1 1.2,-4.1 3.4,-4.3 0.8,0.3 1.4,0.4 2,0.7 z"
           inkscape:connector-curvature="0"
           style="fill:#1d1d1b" />
      </g>
      <path
         id="path3512"
         d="m 266,567.1 c 0,0 0.3,-15.4 1.8,-17.1 1.5,-1.7 7.8,-10.4 6.9,-13.8"
         stroke-miterlimit="10"
         inkscape:connector-curvature="0"
         style="fill:none;stroke:#1d1d1b;stroke-width:7;stroke-linecap:round;stroke-miterlimit:10" />
      <g
         id="g3514">
        <path
           id="path3516"
           d="m 244.8,553.6 c 0,0 1.8,5.7 3.6,11.4 0.9,2.9 1.8,5.7 2.4,7.9 0.3,1.1 0.6,2 0.8,2.7 0,0.2 0.1,0.3 0.1,0.5 0,0.2 0.1,0.3 0.1,0.5 0.1,0.3 0.1,0.4 0.1,0.4 0.3,1.4 -0.6,2.7 -2,3 -1.2,0.3 -2.3,-0.4 -2.8,-1.4 l -0.4,-0.8 c 0,0 0,0 0,-0.1 0,-0.1 -0.1,-0.3 -0.2,-0.5 -0.2,-0.6 -0.5,-1.4 -0.9,-2.5 -0.8,-2.1 -1.9,-4.8 -3,-7.6 -2.2,-5.5 -4.4,-11 -4.4,-11 l 0,0 c -0.7,-1.8 0.1,-3.8 1.9,-4.6 1.8,-0.7 3.8,0.1 4.6,1.9 0,0 0.1,0.1 0.1,0.2 z"
           inkscape:connector-curvature="0"
           style="fill:#1d1d1b" />
      </g>
      <g
         id="g3518">
        <path
           id="path3520"
           d="m 235.8,523.1 c 0,0 0.2,-0.3 0.7,-0.8 0.4,-0.5 1,-1.2 1.8,-2 0.4,-0.4 0.8,-0.9 1.2,-1.3 0.5,-0.5 0.9,-1 1.6,-1.5 0.3,-0.3 0.6,-0.5 1.3,-1 0.1,-0.1 0.4,-0.2 0.7,-0.4 0.1,0 0.3,-0.1 0.4,-0.1 l 0.2,0 c 0.1,0 0.1,0 0.3,0 0.3,0 0.6,0 0.9,0.1 l 0.2,0 c -0.3,-0.1 -0.1,0 -0.1,0 l 0,0 0,0 0.3,0.1 0.2,0 c 0.7,0.1 1.3,0.2 2,0.3 2.8,0.4 5.7,0.9 7.9,1.3 0.6,0.1 1.1,0.2 1.5,0.3 0.5,0.1 0.9,0.2 1.3,0.3 0.2,0.1 0.4,0.2 0.6,0.2 0.1,0 0.2,0.1 0.3,0.1 0,0 0.1,0 0.2,0.1 0.1,0 0.1,0.1 0.2,0.1 0.5,0.3 0.8,0.6 0.8,0.6 1.1,1.1 1.1,2.9 0,4 -1.1,1.1 -2.9,1.1 -4,0 0,0 0.1,0.1 0.3,0.3 0,0 0.1,0 0.1,0.1 0,0 0.1,0 0.1,0 0,0 0,0 -0.1,0 -0.1,0 -0.1,0 -0.2,-0.1 -0.2,-0.1 -0.5,-0.1 -0.9,-0.2 -0.4,-0.1 -0.8,-0.2 -1.3,-0.3 -2,-0.4 -4.8,-0.8 -7.7,-1.1 -0.8,-0.1 -1.5,-0.2 -2.3,-0.3 l -0.6,-0.1 0,0 -0.2,0 0.2,0 c 0.3,0.1 0.5,0.1 0.8,0 l 0.2,0 0.1,0 c 0.1,0 0.2,-0.1 0.3,-0.1 0.2,-0.1 0.3,-0.1 0.3,-0.1 0.1,0 -0.2,0.1 -0.3,0.3 -0.4,0.4 -0.8,0.8 -1.2,1.2 -0.4,0.4 -0.8,0.8 -1.1,1.2 -0.7,0.8 -1.2,1.4 -1.6,1.9 -0.4,0.5 -0.6,0.7 -0.6,0.7 l 0,0 c -1.1,1.3 -3,1.5 -4.3,0.4 -1.4,-1 -1.6,-2.9 -0.5,-4.2 0,0 0,0 0,0 z"
           inkscape:connector-curvature="0"
           style="fill:#1d1d1b" />
      </g>
      <path
         id="path3522"
         d="m 246.7,523 c 0,0 -0.3,2.7 1.5,4 1.8,1.3 4.1,1.2 4.8,-2.3"
         stroke-miterlimit="10"
         inkscape:connector-curvature="0"
         style="fill:none;stroke:#1d1d1b;stroke-width:7;stroke-linecap:round;stroke-miterlimit:10" />
      <g
         id="g3524">
        <path
           id="path3526"
           d="m 215,521.8 c 0,0 0,-0.1 0,0 0,0 0,0.1 0,0.1 0,0 -0.1,0 -0.1,-0.1 -0.1,-0.1 -0.1,-0.2 -0.2,-0.3 -0.1,-0.1 -0.2,-0.3 -0.4,-0.4 -0.2,-0.2 -0.4,-0.3 -0.6,-0.5 -0.3,-0.2 -0.5,-0.4 -0.9,-0.6 -0.3,-0.2 -0.7,-0.4 -1.1,-0.6 l -0.3,-0.1 c 0,0 0.1,0.1 0.1,0 l 0,0 0,0 0,0 0,0 -0.1,0 -0.2,-0.1 -0.4,-0.2 -0.3,-0.1 c -0.4,-0.1 -0.9,-0.3 -1.4,-0.4 -0.5,-0.1 -1,-0.3 -1.4,-0.4 -0.9,-0.3 -1.8,-0.4 -2.6,-0.6 -0.8,-0.2 -1.4,-0.3 -1.8,-0.3 -0.4,-0.1 -0.6,-0.1 -0.6,-0.1 l -0.2,0 c -1.9,-0.3 -3.2,-2.1 -2.9,-4 0.3,-1.7 1.8,-2.9 3.4,-2.9 0,0 0.4,0 1,0 0.6,0 1.4,0.1 2.3,0.3 1,0.2 2.1,0.4 3.2,0.7 0.6,0.2 1.2,0.4 1.8,0.6 0.6,0.2 1.2,0.5 1.9,0.8 l 0.5,0.2 0.4,0.2 0.5,0.2 0.5,0.3 c 0.6,0.3 1.2,0.7 1.8,1.2 0.6,0.4 1.1,0.9 1.6,1.4 0.5,0.5 0.9,1.1 1.2,1.6 0.3,0.6 0.6,1.1 0.8,1.7 0.2,0.5 0.3,1 0.3,1.5 0.1,0.4 0.1,0.8 0,1.1 0,0.2 0,0.3 0,0.4 0,0.1 0,0.1 0,0.1 -0.1,1.5 -1.5,2.7 -3,2.5 -1.5,-0.2 -2.9,-1.7 -2.8,-3.2 z"
           inkscape:connector-curvature="0"
           style="fill:#1d1d1b" />
      </g>
      <path
         id="path3528"
         d="m 214.3,575.3 c 0,0 2.3,-1.5 4.6,-1 2.3,0.5 20.1,1.1 20.1,1.1"
         stroke-miterlimit="10"
         inkscape:connector-curvature="0"
         style="fill:none;stroke:#1d1d1b;stroke-width:7;stroke-linecap:round;stroke-miterlimit:10" />
      <path
         id="path3530"
         d="m 221.4,571.5 c 0,0 3.9,-1.5 4.6,-1 0.8,0.5 5.1,2.4 5.1,2.4"
         stroke-miterlimit="10"
         inkscape:connector-curvature="0"
         style="fill:none;stroke:#1d1d1b;stroke-width:7;stroke-linecap:round;stroke-miterlimit:10" />
      <path
         id="path3532"
         d="m 218.6,571.7 c 0,0 -2.1,-2.3 -2.9,-1.5 -0.8,0.8 -2,4.1 -2,4.1"
         stroke-miterlimit="10"
         inkscape:connector-curvature="0"
         style="fill:none;stroke:#1d1d1b;stroke-width:7;stroke-linecap:round;stroke-miterlimit:10" />
      <path
         id="path3534"
         d="m 206.4,522.3 c 0,0 8.5,-2.5 10.8,2.3"
         stroke-miterlimit="10"
         inkscape:connector-curvature="0"
         style="fill:none;stroke:#1d1d1b;stroke-width:7;stroke-miterlimit:10" />
      <path
         id="path3536"
         d="m 211,527.9 c 0.7,-1.3 -2.3,-5.3 -2.3,-5.3"
         stroke-miterlimit="10"
         inkscape:connector-curvature="0"
         style="fill:none;stroke:#1d1d1b;stroke-width:9;stroke-linecap:round;stroke-miterlimit:10" />
      <path
         id="path3538"
         d="m 248.1,646.6 c -3.4,-4.5 -3.9,-7.9 -3.9,-7.9"
         stroke-miterlimit="10"
         inkscape:connector-curvature="0"
         style="fill:none;stroke:#1d1d1b;stroke-width:7;stroke-linecap:round;stroke-miterlimit:10" />
      <path
         id="path3540"
         d="m 266,639.2 c 0,0 0.7,6.2 3.7,7.5"
         stroke-miterlimit="10"
         inkscape:connector-curvature="0"
         style="fill:none;stroke:#1d1d1b;stroke-width:7;stroke-linecap:round;stroke-miterlimit:10" />
      <path
         id="path3542"
         d="m 234.8,651.7 c 0.2,4 -0.5,10 2.8,11"
         stroke-miterlimit="10"
         inkscape:connector-curvature="0"
         style="fill:none;stroke:#1d1d1b;stroke-width:7;stroke-linecap:round;stroke-miterlimit:10" />
      <path
         id="path3544"
         d="m 256.8,653.9 c 0,0 0.2,7.5 3.2,8.8"
         stroke-miterlimit="10"
         inkscape:connector-curvature="0"
         style="fill:none;stroke:#1d1d1b;stroke-width:7;stroke-linecap:round;stroke-miterlimit:10" />
      <path
         id="path3546"
         d="m 280.8,653.2 c 0,0 -0.5,3 2.7,5.3"
         stroke-miterlimit="10"
         inkscape:connector-curvature="0"
         style="fill:none;stroke:#1d1d1b;stroke-width:7;stroke-linecap:round;stroke-miterlimit:10" />
      <path
         id="path3548"
         d="m 225.7,670.2 c -1.8,5.5 -0.9,5.8 2.2,10"
         stroke-miterlimit="10"
         inkscape:connector-curvature="0"
         style="fill:none;stroke:#1d1d1b;stroke-width:7;stroke-linecap:round;stroke-miterlimit:10" />
      <path
         id="path3550"
         d="m 246.5,671.2 c 0,0 0,8.7 3.2,10"
         stroke-miterlimit="10"
         inkscape:connector-curvature="0"
         style="fill:none;stroke:#1d1d1b;stroke-width:7;stroke-linecap:round;stroke-miterlimit:10" />
      <path
         id="path3552"
         d="m 271,669.1 c 0,0 -0.7,9.3 4,10.8"
         stroke-miterlimit="10"
         inkscape:connector-curvature="0"
         style="fill:none;stroke:#1d1d1b;stroke-width:7;stroke-linecap:round;stroke-miterlimit:10" />
      <path
         id="path3554"
         d="m 289.2,670.9 c 0,0 0.7,7.8 4.8,9.3"
         stroke-miterlimit="10"
         inkscape:connector-curvature="0"
         style="fill:none;stroke:#1d1d1b;stroke-width:7;stroke-linecap:round;stroke-miterlimit:10" />
      <path
         id="path3556"
         d="m 298.2,640.1 c 0,0 7,-16.2 13.3,-16.5 6.3,-0.3 21.8,-3.3 24,-0.3"
         stroke-miterlimit="10"
         inkscape:connector-curvature="0"
         style="fill:none;stroke:#1d1d1b;stroke-width:7;stroke-linecap:round;stroke-miterlimit:10" />
      <path
         id="path3558"
         d="m 331.5,633.9 c 0,0 14.2,2.3 16.7,7.7"
         stroke-miterlimit="10"
         inkscape:connector-curvature="0"
         style="fill:none;stroke:#1d1d1b;stroke-width:7;stroke-linecap:round;stroke-miterlimit:10" />
      <path
         id="path3560"
         d="m 299.5,535.9 c 0,0 0.5,-8.7 -2.2,-10.2 -2.7,-1.5 5.5,-11.7 6.8,-13"
         stroke-miterlimit="10"
         inkscape:connector-curvature="0"
         style="fill:none;stroke:#1d1d1b;stroke-width:7;stroke-linecap:round;stroke-miterlimit:10" />
      <path
         id="path3562"
         d="m 213.5,475.4 c 0,0 3.2,-10.7 6.7,-12.7"
         stroke-miterlimit="10"
         inkscape:connector-curvature="0"
         style="fill:none;stroke:#1d1d1b;stroke-width:7;stroke-linecap:round;stroke-miterlimit:10" />
      <path
         id="path3564"
         d="m 226.7,474.6 c 0,0 1.8,-13.8 5.7,-16.2"
         stroke-miterlimit="10"
         inkscape:connector-curvature="0"
         style="fill:none;stroke:#1d1d1b;stroke-width:7;stroke-linecap:round;stroke-miterlimit:10" />
      <path
         id="path3566"
         d="m 241.2,472.6 c 0,0 1.3,-16.7 3.7,-17.8"
         stroke-miterlimit="10"
         inkscape:connector-curvature="0"
         style="fill:none;stroke:#1d1d1b;stroke-width:7;stroke-linecap:round;stroke-miterlimit:10" />
      <path
         id="path3568"
         d="m 259.8,470.7 c 0,0 -1.2,-16 -4.3,-17.3"
         stroke-miterlimit="10"
         inkscape:connector-curvature="0"
         style="fill:none;stroke:#1d1d1b;stroke-width:7;stroke-linecap:round;stroke-miterlimit:10" />
      <path
         id="path3570"
         d="m 272.5,472.2 c 0,0 0,-8.7 -3.5,-12.3"
         stroke-miterlimit="10"
         inkscape:connector-curvature="0"
         style="fill:none;stroke:#1d1d1b;stroke-width:7;stroke-linecap:round;stroke-miterlimit:10" />
      <path
         id="path3572"
         d="m 207,498.2 c -0.8,0 -4.7,-9 -0.8,-13.8"
         stroke-miterlimit="10"
         inkscape:connector-curvature="0"
         style="fill:none;stroke:#1d1d1b;stroke-width:7;stroke-linecap:round;stroke-miterlimit:10" />
      <path
         id="path3574"
         d="m 219.8,496.7 c 0,0 -4,-8.5 -1.3,-14.8"
         stroke-miterlimit="10"
         inkscape:connector-curvature="0"
         style="fill:none;stroke:#1d1d1b;stroke-width:7;stroke-linecap:round;stroke-miterlimit:10" />
      <path
         id="path3576"
         d="m 236.7,494.6 c -2,0 -4,-3.7 -2.7,-9.8"
         stroke-miterlimit="10"
         inkscape:connector-curvature="0"
         style="fill:none;stroke:#1d1d1b;stroke-width:7;stroke-linecap:round;stroke-miterlimit:10" />
      <path
         id="path3578"
         d="m 253.3,491.2 c 0,0 -3.8,-2.5 -3.3,-10.3"
         stroke-miterlimit="10"
         inkscape:connector-curvature="0"
         style="fill:none;stroke:#1d1d1b;stroke-width:7;stroke-linecap:round;stroke-miterlimit:10" />
      <path
         id="path3580"
         d="m 276.3,484.7 c 2,7 -1.5,14 -1,15.7 0.5,1.7 11.2,-9.5 12.8,-7.3 1.7,2.2 -1,14.8 -3,15.3"
         stroke-miterlimit="10"
         inkscape:connector-curvature="0"
         style="fill:none;stroke:#1d1d1b;stroke-width:7;stroke-linecap:round;stroke-miterlimit:10" />
      <path
         id="path3582"
         d="m 216.3,578.6 c 0,0 13,3.7 14.6,0.3"
         stroke-miterlimit="10"
         inkscape:connector-curvature="0"
         style="fill:none;stroke:#1d1d1b;stroke-width:7;stroke-linecap:round;stroke-miterlimit:10" />
      <path
         id="path3584"
         d="m 226,556 c 0,0 2.9,-2.3 4.8,-1.5"
         stroke-miterlimit="10"
         inkscape:connector-curvature="0"
         style="fill:none;stroke:#1d1d1b;stroke-width:6;stroke-linecap:round;stroke-miterlimit:10" />
      <g
         id="Ebene_3">
        <path
           id="path3639"
           d="m 200.3,498.2 c 0,0 -7.1,-15.7 9,-29 13.1,-10.8 33.2,-18.7 45.1,-17.3 19.7,2.3 50.9,20.3 52.6,34 1.6,13.7 -15.2,24.3 -15.2,27 0,2.7 -9.4,20.7 -9,24 0.3,3.3 0.6,-17.7 -4.8,-24 -5.5,-6.3 -8.4,-8.3 -12.3,-8.3 -3.9,0 0,-12.3 0,-12.3 0,0 -51.6,9.7 -58,8.3 -6.4,-1.4 -7.4,-2.4 -7.4,-2.4 z"
           stroke-miterlimit="10"
           inkscape:connector-curvature="0"
           style="fill:none;stroke:#1d1d1b;stroke-width:7;stroke-miterlimit:10" />
        <path
           id="path3641"
           d="M 206.1,498.9 201,507 c -0.9,2.8 -0.8,5.7 0.1,8.5 l 3.2,9.5 c 0.7,2 0.5,4.2 -0.6,6.1 -0.9,1.5 -0.9,4.5 -1.5,6.2 -0.9,2.6 8,57.3 15.4,60 7.4,2.7 23.2,6 27.7,4.3 4.5,-1.7 34.4,-23 36.7,-26 2.3,-3 8.9,-10.1 9.3,-12.3"
           stroke-miterlimit="10"
           inkscape:connector-curvature="0"
           style="fill:none;stroke:#1d1d1b;stroke-width:7;stroke-linecap:round;stroke-miterlimit:10" />
      </g>
    </g>
  </g>
</svg>
