<?xml version="1.0" encoding="UTF-8" standalone="no"?>
<!-- Created with Inkscape (http://www.inkscape.org/) -->

<svg
   xmlns:dc="http://purl.org/dc/elements/1.1/"
   xmlns:cc="http://creativecommons.org/ns#"
   xmlns:rdf="http://www.w3.org/1999/02/22-rdf-syntax-ns#"
   xmlns:svg="http://www.w3.org/2000/svg"
   xmlns="http://www.w3.org/2000/svg"
   xmlns:sodipodi="http://sodipodi.sourceforge.net/DTD/sodipodi-0.dtd"
   xmlns:inkscape="http://www.inkscape.org/namespaces/inkscape"
   sodipodi:docname="starfleet_mirrored_outline.svg"
   height="226"
   width="162"
   inkscape:version="0.48.5 r10040"
   version="1.1"
   id="svg4514">
  <sodipodi:namedview
     pagecolor="#ffffff"
     bordercolor="#666666"
     borderopacity="1"
     objecttolerance="10"
     gridtolerance="10"
     guidetolerance="10"
     inkscape:pageopacity="0"
     inkscape:pageshadow="2"
     inkscape:window-width="1440"
     inkscape:window-height="855"
     id="namedview4516"
     showgrid="false"
     inkscape:zoom="1.4767894"
     inkscape:cx="511.13585"
     inkscape:cy="541.39544"
     inkscape:window-x="0"
     inkscape:window-y="23"
     inkscape:window-maximized="1"
     inkscape:current-layer="layer1" />
  <metadata
     id="metadata4520">
    <rdf:RDF>
      <cc:Work
         rdf:about="">
        <dc:format>image/svg+xml</dc:format>
        <dc:type
           rdf:resource="http://purl.org/dc/dcmitype/StillImage" />
        <dc:title></dc:title>
      </cc:Work>
    </rdf:RDF>
  </metadata>
  <defs
     id="defs4518" />
  <g
     style="display:inline"
     inkscape:groupmode="layer"
     id="layer1"
     inkscape:label="Layer">
    <path
       inkscape:connector-curvature="0"
       id="path4524"
       d="m 326.125,-450.34375 c -1.80877,0 -3.10931,0.16569 -4.375,0.78125 -1.26569,0.61556 -2.45925,1.64675 -4.15625,3.34375 -4.30965,4.30965 -9.86296,14.64891 -14.6875,27.09375 -2.05561,5.30239 -3.57367,7.6613 -5.40625,8.71875 -1.52468,0.87979 -5.55225,3.17061 -8.9375,5.09375 -8.34762,4.74222 -19.84465,15.64939 -25.5,24.15625 -9.2331,13.88857 -13.59224,28.80668 -13.5625,46.4375 0.0297,17.61095 4.64955,32.84183 14.15625,46.59375 l 4.96875,7.1875 -2.09375,11.84375 c -1.18014,6.65151 -2.21795,14.80614 -2.3125,18.21875 -0.0745,2.68791 -0.0713,4.27544 0.28125,5.5 0.35254,1.22456 1.07085,2.0054 2.1875,2.875 l 2.46875,1.90625 0.375,0.28125 0.3125,-0.34375 3.3125,-3.71875 c 1.89375,-2.13931 5.62092,-7.75773 8.40625,-12.625 1.38114,-2.41349 2.69789,-4.59879 3.71875,-6.125 0.51043,-0.7631 0.96602,-1.36148 1.28125,-1.75 0.12446,-0.1534 0.20565,-0.2367 0.28125,-0.3125 0.26197,0.12972 0.90079,0.45221 1.96875,1 1.20314,0.61713 2.75795,1.42873 4.40625,2.28125 14.82004,7.66507 31.18847,10.64967 47.21875,8.625 5.22686,-0.66016 11.22918,-1.76938 13.53125,-2.5625 l 3.59375,-1.25 8.5,12.78125 c 4.789,7.21114 9.99681,14.75834 11.65625,16.875 l 0.15625,0.1875 0.0312,0 c 1.09406,1.37148 1.9966,2.35981 2.96875,2.9375 1.03387,0.61436 2.13387,0.8125 3.53125,0.8125 1.55436,0 2.55886,-0.0457 3.28125,-0.6875 0.72239,-0.64179 0.93985,-1.65928 1.25,-3.3125 0.10929,-0.58263 0.17497,-1.67494 0.21875,-3.25 0.0438,-1.57506 0.0674,-3.60928 0.0625,-5.96875 -0.01,-4.71894 -0.1122,-10.70795 -0.3125,-16.875 L 388.1875,-275.8125 391.5,-279.5 c 9.25856,-10.24813 16.50623,-24.50498 19.40625,-38.1875 1.8851,-8.89423 1.82973,-25.46912 -0.0937,-34.78125 -5.20226,-25.18574 -22.16449,-46.34787 -46.03125,-57.375 -6.85414,-3.16681 -7.57972,-3.76008 -10.5625,-9 -6.57943,-11.55825 -12.42646,-19.92505 -17.9375,-25.59375 -2.53058,-2.60297 -4.03999,-4.06718 -5.46875,-4.90625 -1.42876,-0.83907 -2.76513,-1 -4.6875,-1 z m 0,1 c 1.87415,0 2.90532,0.14036 4.15625,0.875 1.25093,0.73464 2.7599,2.12526 5.28125,4.71875 5.41508,5.57 11.22556,13.8897 17.78125,25.40625 3.00516,5.27922 4.11958,6.2273 11,9.40625 23.58884,10.89873 40.36252,31.81536 45.5,56.6875 1.87572,9.08093 1.92511,25.73433 0.0937,34.375 -2.8591,13.48942 -10.06472,27.62092 -19.1875,37.71875 l -3.4375,3.8125 -0.125,0.15625 0,0.21875 0.71875,22.40625 c 0.19999,6.15744 0.30269,12.13806 0.3125,16.84375 0.005,2.35284 -0.0192,4.3783 -0.0625,5.9375 -0.0433,1.5592 -0.11156,2.68891 -0.1875,3.09375 -0.30483,1.6249 -0.56147,2.41592 -0.9375,2.75 -0.37603,0.33408 -1.10454,0.4375 -2.625,0.4375 -1.30624,0 -2.14639,-0.18025 -3,-0.6875 -0.85361,-0.50725 -1.74125,-1.38901 -2.90625,-2.875 -1.57208,-2.00522 -6.81193,-9.61218 -11.59375,-16.8125 l -8.71875,-13.09375 -0.21875,-0.3125 -0.34375,0.125 -3.96875,1.34375 c -2.06223,0.7105 -8.16565,1.9085 -13.34375,2.5625 -15.82464,1.99869 -31.9774,-0.98663 -46.625,-8.5625 -1.6492,-0.85299 -3.23298,-1.63216 -4.4375,-2.25 -1.20452,-0.61784 -1.99995,-1.0527 -2.21875,-1.15625 -0.24017,-0.11367 -0.42768,-0.0218 -0.53125,0.0312 -0.10357,0.0531 -0.17688,0.12203 -0.25,0.1875 -0.14624,0.13095 -0.29319,0.28362 -0.46875,0.5 -0.35112,0.43276 -0.79235,1.06611 -1.3125,1.84375 -1.0403,1.55528 -2.3906,3.72612 -3.78125,6.15625 -2.75823,4.81993 -6.53704,10.46711 -8.28125,12.4375 l -3,3.40625 -2.09375,-1.625 c -1.06299,-0.82781 -1.55595,-1.37532 -1.84375,-2.375 -0.2878,-0.99968 -0.324,-2.54891 -0.25,-5.21875 0.0901,-3.25021 1.10805,-11.4189 2.28125,-18.03125 l 2.15625,-12.0625 0.0312,-0.1875 -0.125,-0.1875 -5.0625,-7.34375 c -9.39684,-13.593 -13.97059,-28.5941 -14,-46.03125 -0.0295,-17.46554 4.27559,-32.17178 13.40625,-45.90625 5.52561,-8.3117 17.04045,-19.20198 25.15625,-23.8125 3.38669,-1.92396 7.4058,-4.2099 8.9375,-5.09375 2.1776,-1.25653 3.76456,-3.88677 5.84375,-9.25 4.7977,-12.37562 10.4257,-22.6757 14.46875,-26.71875 1.67475,-1.67475 2.78775,-2.62748 3.875,-3.15625 1.08725,-0.52877 2.18515,-0.6875 3.9375,-0.6875 z"
       style="font-size:medium;font-style:normal;font-variant:normal;font-weight:normal;font-stretch:normal;text-indent:0;text-align:start;text-decoration:none;line-height:normal;letter-spacing:normal;word-spacing:normal;text-transform:none;direction:ltr;block-progression:tb;writing-mode:lr-tb;text-anchor:start;baseline-shift:baseline;color:#000000;fill-opacity:1;fill-rule:nonzero;stroke:none;stroke-width:1;marker:none;visibility:visible;display:inline;overflow:visible;enable-background:accumulate;font-family:Sans;-inkscape-font-specification:Sans" />
    <g
       id="g11979"
       transform="translate(461.77332,-348.43357)"
       gcodetools="Gcodetools tool definition">
      <path
         id="path11981"
         d="m -20,-20 400,0 0,175 -400,0 z"
         style="fill:#00ff00;fill-opacity:0.5;stroke:#444444;stroke-width:1px"
         gcodetools="Gcodetools tool background"
         inkscape:connector-curvature="0" />
      <g
         id="g11983"
         gcodetools="Gcodetools tool parameter">
        <text
           id="text11985"
           xml:space="preserve"
           y="0"
           x="0"
           style="font-size:20px;font-style:normal;font-variant:normal;font-weight:normal;font-stretch:normal;fill:#000000;fill-opacity:1;stroke:none;font-family:DejaVu Sans"
           gcodetools="Gcodetools tool definition field name"><tspan
             id="tspan11987"
             sodipodi:role="line"
             y="0"
             x="0">name</tspan></text>
        <text
           id="text11989"
           xml:space="preserve"
           y="0"
           x="150"
           style="font-size:20px;font-style:normal;font-variant:normal;font-weight:normal;font-stretch:normal;fill:#000000;fill-opacity:1;stroke:none;font-family:DejaVu Sans"
           gcodetools="Gcodetools tool definition field value"><tspan
             id="tspan11991"
             sodipodi:role="line"
             y="0"
             x="150">Cylindrical cutter</tspan></text>
      </g>
      <g
         id="g11993"
         gcodetools="Gcodetools tool parameter">
        <text
           id="text11995"
           xml:space="preserve"
           y="20"
           x="0"
           style="font-size:10px;font-style:normal;font-variant:normal;font-weight:normal;font-stretch:normal;fill:#000000;fill-opacity:1;stroke:none;font-family:DejaVu Sans"
           gcodetools="Gcodetools tool definition field name"><tspan
             id="tspan11997"
             sodipodi:role="line"
             y="20"
             x="0">id</tspan></text>
        <text
           id="text11999"
           xml:space="preserve"
           y="20"
           x="150"
           style="font-size:10px;font-style:normal;font-variant:normal;font-weight:normal;font-stretch:normal;fill:#000000;fill-opacity:1;stroke:none;font-family:DejaVu Sans"
           gcodetools="Gcodetools tool definition field value"><tspan
             id="tspan12001"
             sodipodi:role="line"
             y="20"
             x="150">Cylindrical cutter 0001</tspan></text>
      </g>
      <g
         id="g12003"
         gcodetools="Gcodetools tool parameter">
        <text
           id="text12005"
           xml:space="preserve"
           y="35"
           x="0"
           style="font-size:10px;font-style:normal;font-variant:normal;font-weight:normal;font-stretch:normal;fill:#000000;fill-opacity:1;stroke:none;font-family:DejaVu Sans"
           gcodetools="Gcodetools tool definition field name"><tspan
             id="tspan12007"
             sodipodi:role="line"
             y="35"
             x="0">diameter</tspan></text>
        <text
           id="text12009"
           xml:space="preserve"
           y="35"
           x="150"
           style="font-size:10px;font-style:normal;font-variant:normal;font-weight:normal;font-stretch:normal;fill:#000000;fill-opacity:1;stroke:none;font-family:DejaVu Sans"
           gcodetools="Gcodetools tool definition field value"><tspan
             id="tspan12011"
             sodipodi:role="line"
             y="35"
             x="150">2</tspan></text>
      </g>
      <g
         id="g12013"
         gcodetools="Gcodetools tool parameter">
        <text
           id="text12015"
           xml:space="preserve"
           y="50"
           x="0"
           style="font-size:10px;font-style:normal;font-variant:normal;font-weight:normal;font-stretch:normal;fill:#000000;fill-opacity:1;stroke:none;font-family:DejaVu Sans"
           gcodetools="Gcodetools tool definition field name"><tspan
             id="tspan12017"
             sodipodi:role="line"
             y="50"
             x="0">feed</tspan></text>
        <text
           id="text12019"
           xml:space="preserve"
           y="50"
           x="150"
           style="font-size:10px;font-style:normal;font-variant:normal;font-weight:normal;font-stretch:normal;fill:#000000;fill-opacity:1;stroke:none;font-family:DejaVu Sans"
           gcodetools="Gcodetools tool definition field value"><tspan
             id="tspan12021"
             sodipodi:role="line"
             y="50"
             x="150">1000</tspan></text>
      </g>
      <g
         id="g12023"
         gcodetools="Gcodetools tool parameter">
        <text
           id="text12025"
           xml:space="preserve"
           y="65"
           x="0"
           style="font-size:10px;font-style:normal;font-variant:normal;font-weight:normal;font-stretch:normal;fill:#000000;fill-opacity:1;stroke:none;font-family:DejaVu Sans"
           gcodetools="Gcodetools tool definition field name"><tspan
             id="tspan12027"
             sodipodi:role="line"
             y="65"
             x="0">penetration angle</tspan></text>
        <text
           id="text12029"
           xml:space="preserve"
           y="65"
           x="150"
           style="font-size:10px;font-style:normal;font-variant:normal;font-weight:normal;font-stretch:normal;fill:#000000;fill-opacity:1;stroke:none;font-family:DejaVu Sans"
           gcodetools="Gcodetools tool definition field value"><tspan
             id="tspan12031"
             sodipodi:role="line"
             y="65"
             x="150">90</tspan></text>
      </g>
      <g
         id="g12033"
         gcodetools="Gcodetools tool parameter">
        <text
           id="text12035"
           xml:space="preserve"
           y="80"
           x="0"
           style="font-size:10px;font-style:normal;font-variant:normal;font-weight:normal;font-stretch:normal;fill:#000000;fill-opacity:1;stroke:none;font-family:DejaVu Sans"
           gcodetools="Gcodetools tool definition field name"><tspan
             id="tspan12037"
             sodipodi:role="line"
             y="80"
             x="0">penetration feed</tspan></text>
        <text
           id="text12039"
           xml:space="preserve"
           y="80"
           x="150"
           style="font-size:10px;font-style:normal;font-variant:normal;font-weight:normal;font-stretch:normal;fill:#000000;fill-opacity:1;stroke:none;font-family:DejaVu Sans"
           gcodetools="Gcodetools tool definition field value"><tspan
             id="tspan12041"
             sodipodi:role="line"
             y="80"
             x="150">1000</tspan></text>
      </g>
      <g
         id="g12043"
         gcodetools="Gcodetools tool parameter">
        <text
           id="text12045"
           xml:space="preserve"
           y="95"
           x="0"
           style="font-size:10px;font-style:normal;font-variant:normal;font-weight:normal;font-stretch:normal;fill:#000000;fill-opacity:1;stroke:none;font-family:DejaVu Sans"
           gcodetools="Gcodetools tool definition field name"><tspan
             id="tspan12047"
             sodipodi:role="line"
             y="95"
             x="0">depth step</tspan></text>
        <text
           id="text12049"
           xml:space="preserve"
           y="95"
           x="150"
           style="font-size:10px;font-style:normal;font-variant:normal;font-weight:normal;font-stretch:normal;fill:#000000;fill-opacity:1;stroke:none;font-family:DejaVu Sans"
           gcodetools="Gcodetools tool definition field value"><tspan
             id="tspan12051"
             sodipodi:role="line"
             y="95"
             x="150">1</tspan></text>
      </g>
      <g
         id="g12053"
         gcodetools="Gcodetools tool parameter">
        <text
           id="text12055"
           xml:space="preserve"
           y="110"
           x="0"
           style="font-size:10px;font-style:normal;font-variant:normal;font-weight:normal;font-stretch:normal;fill:#000000;fill-opacity:1;stroke:none;font-family:DejaVu Sans"
           gcodetools="Gcodetools tool definition field name"><tspan
             id="tspan12057"
             sodipodi:role="line"
             y="110"
             x="0">tool change gcode</tspan></text>
        <text
           id="text12059"
           xml:space="preserve"
           y="110"
           x="150"
           style="font-size:10px;font-style:normal;font-variant:normal;font-weight:normal;font-stretch:normal;fill:#000000;fill-opacity:1;stroke:none;font-family:DejaVu Sans"
           gcodetools="Gcodetools tool definition field value"><tspan
             id="tspan12061"
             sodipodi:role="line"
             y="110"
             x="150">(None)</tspan></text>
      </g>
    </g>
  </g>
</svg>
