<?xml version="1.0" encoding="UTF-8" standalone="no"?>
<!-- Created with Inkscape (http://www.inkscape.org/) -->

<svg
   xmlns:dc="http://purl.org/dc/elements/1.1/"
   xmlns:cc="http://creativecommons.org/ns#"
   xmlns:rdf="http://www.w3.org/1999/02/22-rdf-syntax-ns#"
   xmlns:svg="http://www.w3.org/2000/svg"
   xmlns="http://www.w3.org/2000/svg"
   xmlns:sodipodi="http://sodipodi.sourceforge.net/DTD/sodipodi-0.dtd"
   xmlns:inkscape="http://www.inkscape.org/namespaces/inkscape"
   width="210mm"
   height="297mm"
   id="svg4579"
   version="1.1"
   inkscape:version="0.48.5 r10040"
   sodipodi:docname="starfleet_mirrored.svg">
  <defs
     id="defs4581" />
  <sodipodi:namedview
     id="base"
     pagecolor="#ffffff"
     bordercolor="#666666"
     borderopacity="1.0"
     inkscape:pageopacity="0.0"
     inkscape:pageshadow="2"
     inkscape:zoom="1.979899"
     inkscape:cx="344.54043"
     inkscape:cy="544.37943"
     inkscape:document-units="px"
     inkscape:current-layer="g3649"
     showgrid="false"
     inkscape:window-width="1440"
     inkscape:window-height="855"
     inkscape:window-x="0"
     inkscape:window-y="23"
     inkscape:window-maximized="1" />
  <metadata
     id="metadata4584">
    <rdf:RDF>
      <cc:Work
         rdf:about="">
        <dc:format>image/svg+xml</dc:format>
        <dc:type
           rdf:resource="http://purl.org/dc/dcmitype/StillImage" />
        <dc:title />
      </cc:Work>
    </rdf:RDF>
  </metadata>
  <g
     inkscape:label="Ebene 1"
     inkscape:groupmode="layer"
     id="layer1">
    <g
       transform="matrix(-1,0,0,1,767.42857,-73.781052)"
       id="g3649"
       inkscape:export-filename="/home/kiki/repos/spockolatius/starfleet_mirrored.png"
       inkscape:export-xdpi="90"
       inkscape:export-ydpi="90">
      <path
         style="fill:none;stroke:#1d1d1b;stroke-width:7;stroke-miterlimit:10"
         d="M 284.0486 424.34681 C 254.87119 435.48631 234.12857 463.91148 234.12857 497.21895 L 234.12857 497.21895 C 234.12857 517.28629 241.65796 535.58139 254.02505 549.39167 "
         id="path11213"
         transform="matrix(-1,0,0,1,767.42857,73.781052)" />
      <path
         id="path3588-8"
         d="m 460.30133,459.59973 c -5,-0.7 -21.3,23.6 -27.3,36.8 -4.4,9.7 -28.3,73.5 -28.5,108 -0.1,21.8 -4.1,73.3 -1.8,74 3.4,1 29.8,-46.5 43,-60.3 8,-8.3 22.1,-21.4 28,-22.3 11,-1.5 38.1,60.2 44,63.5 4.5,2.5 -12.9,-78.4 -15.3,-94 -2.3,-15 -18,-65.7 -19.8,-69.5 -3.8,-8.7 -11.8,-35.2 -22.3,-36.2 z"
         stroke-miterlimit="10"
         inkscape:connector-curvature="0"
         style="fill:#ffffff;stroke:#1d1d1b;stroke-width:7;stroke-miterlimit:10" />
      <path
         style="fill:none;stroke:#1d1d1b;stroke-width:7;stroke-miterlimit:10"
         d="M 363.76924 554.54465 C 379.11415 540.30846 388.72857 519.8952 388.72857 497.21895 C 388.72857 462.30814 365.94088 432.76098 334.53768 422.85967 "
         id="path11209"
         transform="matrix(-1,0,0,1,767.42857,73.781052)" />
      <path
         style="fill:none;stroke:#1d1d1b;stroke-width:7;stroke-miterlimit:10"
         d="M 265.41109 559.81741 C 278.26773 569.43171 294.1891 575.11895 311.42857 575.11895 C 321.52824 575.11895 331.17552 573.167 340.01921 569.61703 "
         id="path11205"
         transform="matrix(-1,0,0,1,767.42857,73.781052)" />
      <g
         id="g3590">
        <path
           style="fill:#1d1d1b"
           d="m 457.4,487.4 3.2,0 5.6,50.9 -15.9,-0.3 z"
           id="polygon3592" />
      </g>
      <g
         id="g3594">
        <path
           style="fill:#1d1d1b"
           d="m 476.7,538.9 -0.1,3.5 -18.8,11.1 0.9,-27 z"
           id="polygon3596" />
      </g>
      <g
         id="g3598">
        <path
           style="fill:#1d1d1b"
           d="m 439.6,542.2 0,-3.5 20.5,-11.6 -0.1,27 z"
           id="polygon3600" />
      </g>
      <g
         id="g3602">
        <path
           style="fill:#1d1d1b"
           d="m 471.8,562.7 -4.3,2.2 -12.6,-14.9 12.2,-6.2 z"
           id="polygon3604" />
      </g>
      <g
         id="g3606">
        <path
           style="fill:#1d1d1b"
           d="m 447.7,565.3 -4.1,-2.6 6.2,-18.5 11.7,7.3 z"
           id="polygon3608" />
      </g>
      <path
         style="fill:none;stroke:#1d1d1b;stroke-width:7;stroke-linecap:round;stroke-miterlimit:10"
         d="m 387,565.59998 13.29999,-1"
         id="line3610" />
      <path
         style="fill:none;stroke:#1d1d1b;stroke-width:7;stroke-linecap:round;stroke-miterlimit:10"
         d="m 391.70001,544.59998 14,0.30004"
         id="line3612" />
      <path
         style="fill:none;stroke:#1d1d1b;stroke-width:7;stroke-linecap:round;stroke-miterlimit:10"
         d="m 403.70001,523.20001 7,4"
         id="line3614" />
      <path
         style="fill:none;stroke:#1d1d1b;stroke-width:7;stroke-linecap:round;stroke-miterlimit:10"
         d="m 388.70001,586.59998 9,-2.39997"
         id="line3616" />
      <path
         style="fill:none;stroke:#1d1d1b;stroke-width:7;stroke-linecap:round;stroke-miterlimit:10"
         d="m 417.29999,511.89999 1.40002,1.00003"
         id="line3618" />
      <path
         style="fill:none;stroke:#1d1d1b;stroke-width:7;stroke-linecap:round;stroke-miterlimit:10"
         d="m 394,603.90002 5,-2"
         id="line3620" />
      <path
         style="fill:none;stroke:#1d1d1b;stroke-width:7;stroke-linecap:round;stroke-miterlimit:10"
         d="m 444.29999,637.59998 3,-12.69996"
         id="line3622" />
      <path
         style="fill:none;stroke:#1d1d1b;stroke-width:7;stroke-linecap:round;stroke-miterlimit:10"
         d="M 464.29999,637.20001 463,621.59998"
         id="line3624" />
      <path
         style="fill:none;stroke:#1d1d1b;stroke-width:7;stroke-linecap:round;stroke-miterlimit:10"
         d="m 484.70001,635.20001 -6.40002,-17.60003"
         id="line3626" />
      <path
         style="fill:none;stroke:#1d1d1b;stroke-width:7;stroke-linecap:round;stroke-miterlimit:10"
         d="m 504,532.20001 8.29999,-5.60003"
         id="line3628" />
      <path
         style="fill:none;stroke:#1d1d1b;stroke-width:7;stroke-linecap:round;stroke-miterlimit:10"
         d="m 508.70001,553.90002 13.59998,-3"
         id="line3630" />
      <path
         style="fill:none;stroke:#1d1d1b;stroke-width:7;stroke-linecap:round;stroke-miterlimit:10"
         d="m 513.29999,574.59998 9.70001,2"
         id="line3632" />
      <path
         style="fill:none;stroke:#1d1d1b;stroke-width:7;stroke-linecap:round;stroke-miterlimit:10"
         d="M 513.29999,592.59998 519,595.20001"
         id="line3634" />
      <path
         style="fill:none;stroke:#1d1d1b;stroke-width:7;stroke-linecap:round;stroke-miterlimit:10"
         d="m 496.70001,516.90002 3,-2.30004"
         id="line3636" />
    </g>
  </g>
</svg>
