<?xml version="1.0" encoding="UTF-8" standalone="no"?>
<!-- Created with Inkscape (http://www.inkscape.org/) -->

<svg
   xmlns:dc="http://purl.org/dc/elements/1.1/"
   xmlns:cc="http://creativecommons.org/ns#"
   xmlns:rdf="http://www.w3.org/1999/02/22-rdf-syntax-ns#"
   xmlns:svg="http://www.w3.org/2000/svg"
   xmlns="http://www.w3.org/2000/svg"
   xmlns:sodipodi="http://sodipodi.sourceforge.net/DTD/sodipodi-0.dtd"
   xmlns:inkscape="http://www.inkscape.org/namespaces/inkscape"
   width="210mm"
   height="297mm"
   id="svg4579"
   version="1.1"
   inkscape:version="0.48.4 r9939"
   sodipodi:docname="Neues Dokument 9">
  <defs
     id="defs4581" />
  <sodipodi:namedview
     id="base"
     pagecolor="#ffffff"
     bordercolor="#666666"
     borderopacity="1.0"
     inkscape:pageopacity="0.0"
     inkscape:pageshadow="2"
     inkscape:zoom="0.35"
     inkscape:cx="350"
     inkscape:cy="520"
     inkscape:document-units="px"
     inkscape:current-layer="layer1"
     showgrid="false"
     inkscape:window-width="505"
     inkscape:window-height="453"
     inkscape:window-x="52"
     inkscape:window-y="52"
     inkscape:window-maximized="0" />
  <metadata
     id="metadata4584">
    <rdf:RDF>
      <cc:Work
         rdf:about="">
        <dc:format>image/svg+xml</dc:format>
        <dc:type
           rdf:resource="http://purl.org/dc/dcmitype/StillImage" />
        <dc:title></dc:title>
      </cc:Work>
    </rdf:RDF>
  </metadata>
  <g
     inkscape:label="Ebene 1"
     inkscape:groupmode="layer"
     id="layer1">
    <g
       transform="translate(-144.57143,-73.781052)"
       id="g3649">
      <ellipse
         id="ellipse3586"
         ry="77.900002"
         rx="77.300003"
         cy="571"
         cx="456"
         stroke-miterlimit="10"
         d="m 533.3,571 c 0,43.02298 -34.60839,77.9 -77.3,77.9 -42.69161,0 -77.3,-34.87702 -77.3,-77.9 0,-43.02298 34.60839,-77.9 77.3,-77.9 42.69161,0 77.3,34.87702 77.3,77.9 z"
         sodipodi:cx="456"
         sodipodi:cy="571"
         sodipodi:rx="77.300003"
         sodipodi:ry="77.900002"
         style="fill:none;stroke:#1d1d1b;stroke-width:7;stroke-miterlimit:10" />
      <path
         id="path3588"
         d="m 460.3,459.6 c -5,-0.7 -21.3,23.6 -27.3,36.8 -4.4,9.7 -28.3,73.5 -28.5,108 -0.1,21.8 -4.1,73.3 -1.8,74 3.4,1 29.8,-46.5 43,-60.3 8,-8.3 22.1,-21.4 28,-22.3 11,-1.5 38.1,60.2 44,63.5 4.5,2.5 -12.9,-78.4 -15.3,-94 -2.3,-15 -18,-65.7 -19.8,-69.5 -3.8,-8.7 -11.8,-35.2 -22.3,-36.2 z"
         stroke-miterlimit="10"
         inkscape:connector-curvature="0"
         style="fill:#ffffff;stroke:#1d1d1b;stroke-width:7;stroke-miterlimit:10" />
      <g
         id="g3590">
        <polygon
           id="polygon3592"
           points="450.3,538 457.4,487.4 460.6,487.4 466.2,538.3 "
           style="fill:#1d1d1b" />
      </g>
      <g
         id="g3594">
        <polygon
           id="polygon3596"
           points="458.7,526.5 476.7,538.9 476.6,542.4 457.8,553.5 "
           style="fill:#1d1d1b" />
      </g>
      <g
         id="g3598">
        <polygon
           id="polygon3600"
           points="460,554.1 439.6,542.2 439.6,538.7 460.1,527.1 "
           style="fill:#1d1d1b" />
      </g>
      <g
         id="g3602">
        <polygon
           id="polygon3604"
           points="467.1,543.8 471.8,562.7 467.5,564.9 454.9,550 "
           style="fill:#1d1d1b" />
      </g>
      <g
         id="g3606">
        <polygon
           id="polygon3608"
           points="461.5,551.5 447.7,565.3 443.6,562.7 449.8,544.2 "
           style="fill:#1d1d1b" />
      </g>
      <line
         id="line3610"
         y2="564.59998"
         x2="400.29999"
         y1="565.59998"
         x1="387"
         stroke-miterlimit="10"
         style="fill:none;stroke:#1d1d1b;stroke-width:7;stroke-linecap:round;stroke-miterlimit:10" />
      <line
         id="line3612"
         y2="544.90002"
         x2="405.70001"
         y1="544.59998"
         x1="391.70001"
         stroke-miterlimit="10"
         style="fill:none;stroke:#1d1d1b;stroke-width:7;stroke-linecap:round;stroke-miterlimit:10" />
      <line
         id="line3614"
         y2="527.20001"
         x2="410.70001"
         y1="523.20001"
         x1="403.70001"
         stroke-miterlimit="10"
         style="fill:none;stroke:#1d1d1b;stroke-width:7;stroke-linecap:round;stroke-miterlimit:10" />
      <line
         id="line3616"
         y2="584.20001"
         x2="397.70001"
         y1="586.59998"
         x1="388.70001"
         stroke-miterlimit="10"
         style="fill:none;stroke:#1d1d1b;stroke-width:7;stroke-linecap:round;stroke-miterlimit:10" />
      <line
         id="line3618"
         y2="512.90002"
         x2="418.70001"
         y1="511.89999"
         x1="417.29999"
         stroke-miterlimit="10"
         style="fill:none;stroke:#1d1d1b;stroke-width:7;stroke-linecap:round;stroke-miterlimit:10" />
      <line
         id="line3620"
         y2="601.90002"
         x2="399"
         y1="603.90002"
         x1="394"
         stroke-miterlimit="10"
         style="fill:none;stroke:#1d1d1b;stroke-width:7;stroke-linecap:round;stroke-miterlimit:10" />
      <line
         id="line3622"
         y2="624.90002"
         x2="447.29999"
         y1="637.59998"
         x1="444.29999"
         stroke-miterlimit="10"
         style="fill:none;stroke:#1d1d1b;stroke-width:7;stroke-linecap:round;stroke-miterlimit:10" />
      <line
         id="line3624"
         y2="621.59998"
         x2="463"
         y1="637.20001"
         x1="464.29999"
         stroke-miterlimit="10"
         style="fill:none;stroke:#1d1d1b;stroke-width:7;stroke-linecap:round;stroke-miterlimit:10" />
      <line
         id="line3626"
         y2="617.59998"
         x2="478.29999"
         y1="635.20001"
         x1="484.70001"
         stroke-miterlimit="10"
         style="fill:none;stroke:#1d1d1b;stroke-width:7;stroke-linecap:round;stroke-miterlimit:10" />
      <line
         id="line3628"
         y2="526.59998"
         x2="512.29999"
         y1="532.20001"
         x1="504"
         stroke-miterlimit="10"
         style="fill:none;stroke:#1d1d1b;stroke-width:7;stroke-linecap:round;stroke-miterlimit:10" />
      <line
         id="line3630"
         y2="550.90002"
         x2="522.29999"
         y1="553.90002"
         x1="508.70001"
         stroke-miterlimit="10"
         style="fill:none;stroke:#1d1d1b;stroke-width:7;stroke-linecap:round;stroke-miterlimit:10" />
      <line
         id="line3632"
         y2="576.59998"
         x2="523"
         y1="574.59998"
         x1="513.29999"
         stroke-miterlimit="10"
         style="fill:none;stroke:#1d1d1b;stroke-width:7;stroke-linecap:round;stroke-miterlimit:10" />
      <line
         id="line3634"
         y2="595.20001"
         x2="519"
         y1="592.59998"
         x1="513.29999"
         stroke-miterlimit="10"
         style="fill:none;stroke:#1d1d1b;stroke-width:7;stroke-linecap:round;stroke-miterlimit:10" />
      <line
         id="line3636"
         y2="514.59998"
         x2="499.70001"
         y1="516.90002"
         x1="496.70001"
         stroke-miterlimit="10"
         style="fill:none;stroke:#1d1d1b;stroke-width:7;stroke-linecap:round;stroke-miterlimit:10" />
    </g>
  </g>
</svg>
