<?xml version="1.0" encoding="UTF-8" standalone="no"?>
<!-- Created with Inkscape (http://www.inkscape.org/) -->

<svg
   xmlns:dc="http://purl.org/dc/elements/1.1/"
   xmlns:cc="http://creativecommons.org/ns#"
   xmlns:rdf="http://www.w3.org/1999/02/22-rdf-syntax-ns#"
   xmlns:svg="http://www.w3.org/2000/svg"
   xmlns="http://www.w3.org/2000/svg"
   xmlns:sodipodi="http://sodipodi.sourceforge.net/DTD/sodipodi-0.dtd"
   xmlns:inkscape="http://www.inkscape.org/namespaces/inkscape"
   sodipodi:docname="starfleet_mirrored_outline_gcodeprep.png"
   height="226"
   width="162"
   inkscape:version="0.48.5 r10040"
   version="1.1"
   id="svg4514">
  <sodipodi:namedview
     pagecolor="#ffffff"
     bordercolor="#666666"
     borderopacity="1"
     objecttolerance="10"
     gridtolerance="10"
     guidetolerance="10"
     inkscape:pageopacity="0"
     inkscape:pageshadow="2"
     inkscape:window-width="1440"
     inkscape:window-height="855"
     id="namedview4516"
     showgrid="false"
     inkscape:zoom="1.4767894"
     inkscape:cx="94.831069"
     inkscape:cy="148.43395"
     inkscape:window-x="0"
     inkscape:window-y="23"
     inkscape:window-maximized="1"
     inkscape:current-layer="layer1" />
  <metadata
     id="metadata4520">
    <rdf:RDF>
      <cc:Work
         rdf:about="">
        <dc:format>image/svg+xml</dc:format>
        <dc:type
           rdf:resource="http://purl.org/dc/dcmitype/StillImage" />
        <dc:title></dc:title>
      </cc:Work>
    </rdf:RDF>
  </metadata>
  <defs
     id="defs4518" />
  <g
     inkscape:label="Layer"
     id="layer1"
     inkscape:groupmode="layer"
     style="display:inline">
    <path
       inkscape:connector-curvature="0"
       id="path4524"
       d="m 126.4383,223.9457 c -1.61576,-2.06094 -6.85308,-9.64277 -11.63849,-16.8485 l -8.70076,-13.10133 -3.96752,1.36693 c -2.182149,0.75181 -8.224098,1.90455 -13.426578,2.56163 -15.92746,2.01168 -32.19687,-0.96445 -46.93069,-8.58492 -3.2975,-1.70551 -6.28632,-3.23857 -6.64181,-3.40681 -0.35549,-0.16825 -2.91417,3.65705 -5.68596,8.50067 -2.77178,4.8436 -6.52787,10.4878 -8.34685,12.54265 l -3.30723,3.73608 -2.46414,-1.91898 c -2.17964,-1.69741 -2.44476,-2.61832 -2.29626,-7.97607 0.0923,-3.33141 1.13062,-11.48323 2.30729,-18.11516 l 2.13941,-12.05806 -5.07871,-7.34661 C 2.9482314,149.62476 -1.6459385,134.50852 -1.6754985,116.98447 -1.7050985,99.436292 2.6204914,84.614922 11.802372,70.803399 c 5.59048,-8.409282 17.09134,-19.297314 25.32305,-23.973693 3.38597,-1.923545 7.40664,-4.218838 8.93483,-5.100653 2.00509,-1.156997 3.57601,-3.660386 5.64341,-8.993196 4.81112,-12.410228 10.39816,-22.721234 14.57451,-26.8975832 3.37175,-3.3717528 4.61119,-3.9745462 8.17231,-3.9745462 3.79652,0 4.73168,0.5491956 9.78361,5.7456529 5.46306,5.6193495 11.30344,13.9482515 17.870998,25.4856475 2.99397,5.259571 3.91457,6.046785 10.78185,9.219666 23.7278,10.962925 40.60486,31.983179 45.77473,57.012118 1.8996,9.196528 1.93783,25.821068 0.0796,34.588518 -2.87956,13.58597 -10.0919,27.78263 -19.28257,37.95561 l -3.45474,3.82399 0.72781,22.40817 c 0.40029,12.32449 0.42467,24.02403 0.0542,25.99897 -0.61498,3.27812 -0.96692,3.59079 -4.04174,3.59079 -2.70362,0 -3.94771,-0.73928 -6.30585,-3.74716 z"
       style="fill:#000000" />
  </g>
</svg>
