<?xml version="1.0" encoding="UTF-8" standalone="no"?>
<!-- Created with Inkscape (http://www.inkscape.org/) -->

<svg
   xmlns:dc="http://purl.org/dc/elements/1.1/"
   xmlns:cc="http://creativecommons.org/ns#"
   xmlns:rdf="http://www.w3.org/1999/02/22-rdf-syntax-ns#"
   xmlns:svg="http://www.w3.org/2000/svg"
   xmlns="http://www.w3.org/2000/svg"
   xmlns:sodipodi="http://sodipodi.sourceforge.net/DTD/sodipodi-0.dtd"
   xmlns:inkscape="http://www.inkscape.org/namespaces/inkscape"
   sodipodi:docname="enterprise_mirrored.svg"
   inkscape:version="0.48.5 r10040"
   version="1.1"
   id="svg4433"
   height="297mm"
   width="210mm">
  <defs
     id="defs4435" />
  <sodipodi:namedview
     id="base"
     pagecolor="#ffffff"
     bordercolor="#666666"
     borderopacity="1.0"
     inkscape:pageopacity="0.0"
     inkscape:pageshadow="2"
     inkscape:zoom="1.4"
     inkscape:cx="350"
     inkscape:cy="520"
     inkscape:document-units="px"
     inkscape:current-layer="layer1"
     showgrid="false"
     inkscape:window-width="1440"
     inkscape:window-height="848"
     inkscape:window-x="0"
     inkscape:window-y="23"
     inkscape:window-maximized="1" />
  <metadata
     id="metadata4438">
    <rdf:RDF>
      <cc:Work
         rdf:about="">
        <dc:format>image/svg+xml</dc:format>
        <dc:type
           rdf:resource="http://purl.org/dc/dcmitype/StillImage" />
        <dc:title />
      </cc:Work>
    </rdf:RDF>
  </metadata>
  <g
     inkscape:label="Ebene 1"
     inkscape:groupmode="layer"
     id="layer1">
    <path
       stroke-miterlimit="10"
       d="m 275.04331,598.81887 h 196.1 c 12.8,0 23.3,-10.5 23.3,-23.3 v -113.6 c 0,-10.5 -8.5,-19 -19,-19 h -202.8 c -10.5,0 -19.1,8.6 -19.1,19.1 v 115.2 c 0,11.8 9.7,21.6 21.5,21.6 z"
       id="path3329-6"
       inkscape:connector-curvature="0"
       style="fill:none;stroke:#000000;stroke-width:7.08661413;stroke-miterlimit:9.79310322;stroke-opacity:1;stroke-dasharray:none" />
    <path
       stroke-miterlimit="10"
       d="m 256.64331,482.01887 c 47.6,-49.8 98.8,-31 122.3,-17.6 33.2,18.9 32.8,37.4 32.8,37.4 2.7,5.8 -15.5,24.3 -25.2,28.3"
       id="path3331"
       inkscape:connector-curvature="0"
       style="fill:none;stroke:#000000;stroke-width:7.08661413;stroke-miterlimit:9.79310322;stroke-opacity:1;stroke-dasharray:none" />
    <path
       stroke-miterlimit="10"
       d="m 359.64331,536.21887 c 0,0 -9.3,2.8 -25.2,0.3 -17,-2.7 -34.5,-8.4 -46.3,-16.3 -13.8,-9.3 -32,-29.6 -31.2,-37.5"
       id="path3333"
       inkscape:connector-curvature="0"
       style="fill:none;stroke:#000000;stroke-width:7.08661413;stroke-miterlimit:9.79310322;stroke-opacity:1;stroke-dasharray:none" />
    <path
       stroke-miterlimit="10"
       d="m 400.14331,520.01887 c 0,0 5.2,-6.5 -2.7,-15.7 -6.8,-8 -24.8,-31.1 -51.8,-33.7 -28.5,-2.7 -45.2,-2.3 -57.7,6.7 -18.3,13.2 -21.7,20 -21.2,21.7"
       id="path3335"
       inkscape:connector-curvature="0"
       style="fill:none;stroke:#000000;stroke-width:7.08661413;stroke-miterlimit:9.79310322;stroke-opacity:1;stroke-dasharray:none" />
    <line
       stroke-miterlimit="10"
       x1="297.9433"
       y1="470.71887"
       x2="293.74329"
       y2="458.51889"
       id="line3337"
       style="fill:none;stroke:#000000;stroke-width:7.08661413;stroke-miterlimit:9.79310322;stroke-opacity:1;stroke-dasharray:none" />
    <line
       stroke-miterlimit="10"
       x1="288.9433"
       y1="474.41888"
       x2="283.9433"
       y2="462.41888"
       id="line3339"
       style="fill:none;stroke:#000000;stroke-width:7.08661413;stroke-miterlimit:9.79310322;stroke-opacity:1;stroke-dasharray:none" />
    <path
       stroke-miterlimit="10"
       d="m 398.94331,552.71887 c 0,0 -17.3,-29 -17.6,-34.3 -0.3,-5.3 -26.1,-7.8 -28,-1.1 -1.9,6.8 12.6,34.3 15.4,35.1"
       id="path3341"
       inkscape:connector-curvature="0"
       style="fill:none;stroke:#000000;stroke-width:7.08661413;stroke-miterlimit:9.79310322;stroke-opacity:1;stroke-dasharray:none" />
    <path
       stroke-miterlimit="10"
       d="m 363.44331,511.71887 c 0,0 4.7,-12.6 -6.3,-19.5 -14.8,-9.3 -47.3,-11.7 -55.6,1.5 -1.7,2.7 3.4,6.9 6.1,9.8"
       id="path3343"
       inkscape:connector-curvature="0"
       style="fill:none;stroke:#000000;stroke-width:7.08661413;stroke-linecap:round;stroke-miterlimit:9.79310322;stroke-opacity:1;stroke-dasharray:none" />
    <path
       stroke-miterlimit="10"
       d="m 355.24331,508.21887 c 0,0 -0.5,-6.5 -8.2,-10 -8.2,-3.8 -32,-8.5 -37.9,3.3"
       id="path3345"
       inkscape:connector-curvature="0"
       style="fill:none;stroke:#000000;stroke-width:7.08661413;stroke-linecap:round;stroke-miterlimit:9.79310322;stroke-opacity:1;stroke-dasharray:none" />
    <line
       stroke-miterlimit="10"
       x1="432.4433"
       y1="562.21887"
       x2="447.24329"
       y2="517.71887"
       id="line3347"
       style="fill:none;stroke:#000000;stroke-width:7.08661413;stroke-miterlimit:9.79310322;stroke-opacity:1;stroke-dasharray:none" />
    <path
       stroke-miterlimit="10"
       d="m 435.24331,515.21887 -16.3,44 -9.8,-4.8 -48.3,-2.3 c 0,0 9,13 8.5,15.5 -0.5,2.5 -1,17.9 -3.8,18.3 -2.8,0.4 64.3,0.4 64.3,0.4 0,0 0.8,-3.9 5.5,-5.1 4.7,-1.2 3,-16.7 3,-16.7 l -4.7,-3.2"
       id="path3349"
       inkscape:connector-curvature="0"
       style="fill:none;stroke:#000000;stroke-width:7.08661413;stroke-miterlimit:9.79310322;stroke-opacity:1;stroke-dasharray:none" />
    <path
       stroke-miterlimit="10"
       d="m 431.74331,513.21887 52.3,14 c 0,0 7.8,-11.5 6,-13.7 -1.8,-2.2 -5.2,-3.8 -5.2,-3.8 l 1.2,-4.5 -9.3,-3.2 -4.5,3.2 -35.5,-12.2 c 0,0 3.3,5.2 1.3,10.5 -1.8,4.7 -7.3,11.5 -9.2,11 -1.9,-0.5 -9.5,-4 -10.7,-9 -0.8,-3.2 -2.5,-21 16.2,-14.3"
       id="path3351"
       inkscape:connector-curvature="0"
       style="fill:none;stroke:#000000;stroke-width:7.08661413;stroke-linecap:round;stroke-miterlimit:9.79310322;stroke-opacity:1;stroke-dasharray:none" />
    <line
       stroke-miterlimit="10"
       x1="447.14331"
       y1="504.21887"
       x2="445.9433"
       y2="497.51889"
       id="line3353"
       style="fill:none;stroke:#000000;stroke-width:7.08661413;stroke-linecap:round;stroke-miterlimit:9.79310322;stroke-opacity:1;stroke-dasharray:none" />
    <line
       stroke-miterlimit="10"
       x1="478.24329"
       y1="516.41888"
       x2="462.4433"
       y2="511.71887"
       id="line3355"
       style="fill:none;stroke:#000000;stroke-width:7.08661413;stroke-linecap:round;stroke-miterlimit:9.79310322;stroke-opacity:1;stroke-dasharray:none" />
    <line
       stroke-miterlimit="10"
       x1="418.64331"
       y1="570.91888"
       x2="385.74329"
       y2="569.91888"
       id="line3357"
       style="fill:none;stroke:#000000;stroke-width:7.08661413;stroke-linecap:round;stroke-miterlimit:9.79310322;stroke-opacity:1;stroke-dasharray:none" />
    <line
       stroke-miterlimit="10"
       x1="412.14331"
       y1="563.51886"
       x2="407.4433"
       y2="563.51886"
       id="line3359"
       style="fill:none;stroke:#000000;stroke-width:7.08661413;stroke-linecap:round;stroke-miterlimit:9.79310322;stroke-opacity:1;stroke-dasharray:none" />
    <line
       stroke-miterlimit="10"
       x1="400.84329"
       y1="562.91888"
       x2="395.64331"
       y2="562.91888"
       id="line3361"
       style="fill:none;stroke:#000000;stroke-width:7.08661413;stroke-linecap:round;stroke-miterlimit:9.79310322;stroke-opacity:1;stroke-dasharray:none" />
    <line
       stroke-miterlimit="10"
       x1="388.0433"
       y1="562.91888"
       x2="383.0433"
       y2="562.91888"
       id="line3363"
       style="fill:none;stroke:#000000;stroke-width:7.08661413;stroke-linecap:round;stroke-miterlimit:9.79310322;stroke-opacity:1;stroke-dasharray:none" />
    <path
       stroke-miterlimit="10"
       d="m 354.64331,550.81887 c 0,0 4.5,4.2 5.8,11 1.8,9.2 2.5,12.5 -4.5,20.2 -3.7,4.1 -6.3,3.9 -10.2,1.5 -3.8,-2.4 -5.9,-7.6 -4.8,-18 1.2,-11.8 1.8,-9.5 3.8,-13.2 3,-5.5 9.9,-1.5 9.9,-1.5 z"
       id="path3365"
       inkscape:connector-curvature="0"
       style="fill:none;stroke:#000000;stroke-width:7.08661413;stroke-miterlimit:9.79310322;stroke-opacity:1;stroke-dasharray:none" />
    <path
       stroke-miterlimit="10"
       d="m 316.14331,460.71887 c 0,0 6,-0.8 6.8,-0.3"
       id="path3367"
       inkscape:connector-curvature="0"
       style="fill:none;stroke:#000000;stroke-width:7.08661413;stroke-linecap:round;stroke-miterlimit:9.79310322;stroke-opacity:1;stroke-dasharray:none" />
    <line
       stroke-miterlimit="10"
       x1="334.9433"
       y1="459.41888"
       x2="343.64331"
       y2="460.21887"
       id="line3369"
       style="fill:none;stroke:#000000;stroke-width:7.08661413;stroke-linecap:round;stroke-miterlimit:9.79310322;stroke-opacity:1;stroke-dasharray:none" />
    <line
       stroke-miterlimit="10"
       x1="354.9433"
       y1="463.41888"
       x2="358.9433"
       y2="464.71887"
       id="line3371"
       style="fill:none;stroke:#000000;stroke-width:7.08661413;stroke-linecap:round;stroke-miterlimit:9.79310322;stroke-opacity:1;stroke-dasharray:none" />
    <path
       stroke-miterlimit="10"
       d="m 340.94331,514.51887 c 0,0 -4.2,-4.3 -6.8,-4.3 -2.7,0 -9.7,0.7 -9.7,1.2"
       id="path3373"
       inkscape:connector-curvature="0"
       style="fill:none;stroke:#000000;stroke-width:7.08661413;stroke-linecap:round;stroke-miterlimit:9.79310322;stroke-opacity:1;stroke-dasharray:none" />
    <path
       stroke-miterlimit="10"
       d="m 337.24331,517.91887 c 0,0 -3,1.7 -5,1 -2,-0.7 -5.2,-3.5 -5.2,-3.5"
       id="path3375"
       inkscape:connector-curvature="0"
       style="fill:none;stroke:#000000;stroke-width:7.08661413;stroke-linecap:round;stroke-miterlimit:9.79310322;stroke-opacity:1;stroke-dasharray:none" />
    <path
       stroke-miterlimit="10"
       d="m 354.94331,510.41887 c 0,0 -11.7,1.5 -14,4.2"
       id="path3377"
       inkscape:connector-curvature="0"
       style="fill:none;stroke:#000000;stroke-width:7.08661413;stroke-linecap:round;stroke-miterlimit:9.79310322;stroke-opacity:1;stroke-dasharray:none" />
    <path
       stroke-miterlimit="10"
       d="m 324.74331,512.71887 c 0,0 -10,-9.3 -13.3,-8.3"
       id="path3379"
       inkscape:connector-curvature="0"
       style="fill:none;stroke:#000000;stroke-width:7.08661413;stroke-linecap:round;stroke-miterlimit:9.79310322;stroke-opacity:1;stroke-dasharray:none" />
    <path
       stroke-miterlimit="10"
       d="m 363.94331,587.61887 c 0,0 -5.8,-6.3 -9.5,-4"
       id="path3381"
       inkscape:connector-curvature="0"
       style="fill:none;stroke:#000000;stroke-width:7.08661413;stroke-linecap:round;stroke-miterlimit:9.79310322;stroke-opacity:1;stroke-dasharray:none" />
    <path
       stroke-miterlimit="10"
       d="m 350.44331,558.71887 c 0,0 4.2,8.2 0.8,14.8"
       id="path3383"
       inkscape:connector-curvature="0"
       style="fill:none;stroke:#000000;stroke-width:7.08661413;stroke-linecap:round;stroke-miterlimit:9.79310322;stroke-opacity:1;stroke-dasharray:none" />
    <line
       stroke-miterlimit="10"
       x1="350.74329"
       y1="566.71887"
       x2="342.4433"
       y2="565.81885"
       id="line3385"
       style="fill:none;stroke:#000000;stroke-width:7.08661413;stroke-linecap:round;stroke-miterlimit:9.79310322;stroke-opacity:1;stroke-dasharray:none" />
    <line
       stroke-miterlimit="10"
       x1="429.14331"
       y1="523.01886"
       x2="402.9433"
       y2="518.21887"
       id="line3387"
       style="fill:none;stroke:#000000;stroke-width:7.08661413;stroke-linecap:round;stroke-miterlimit:9.79310322;stroke-opacity:1;stroke-dasharray:none" />
    <line
       stroke-miterlimit="10"
       x1="422.9433"
       y1="537.71887"
       x2="390.14331"
       y2="532.91888"
       id="line3389"
       style="fill:none;stroke:#000000;stroke-width:7.08661413;stroke-linecap:round;stroke-miterlimit:9.79310322;stroke-opacity:1;stroke-dasharray:none" />
    <line
       stroke-miterlimit="10"
       x1="418.9433"
       y1="527.21887"
       x2="400.24329"
       y2="524.01886"
       id="line3391"
       style="fill:none;stroke:#000000;stroke-width:7.08661413;stroke-linecap:round;stroke-miterlimit:9.79310322;stroke-opacity:1;stroke-dasharray:none" />
    <line
       stroke-miterlimit="10"
       x1="362.64331"
       y1="515.01886"
       x2="372.14331"
       y2="540.51886"
       id="line3393"
       style="fill:none;stroke:#000000;stroke-width:7.08661413;stroke-linecap:round;stroke-miterlimit:9.79310322;stroke-opacity:1;stroke-dasharray:none" />
    <line
       stroke-miterlimit="10"
       x1="381.9433"
       y1="527.41888"
       x2="374.74329"
       y2="526.91888"
       id="line3395"
       style="fill:none;stroke:#000000;stroke-width:7.08661413;stroke-linecap:round;stroke-miterlimit:9.79310322;stroke-opacity:1;stroke-dasharray:none" />
    <line
       stroke-miterlimit="10"
       x1="383.74329"
       y1="533.21887"
       x2="379.64331"
       y2="533.21887"
       id="line3397"
       style="fill:none;stroke:#000000;stroke-width:7.08661413;stroke-linecap:round;stroke-miterlimit:9.79310322;stroke-opacity:1;stroke-dasharray:none" />
    <line
       stroke-miterlimit="10"
       x1="386.9433"
       y1="539.01886"
       x2="383.14331"
       y2="538.71887"
       id="line3399"
       style="fill:none;stroke:#000000;stroke-width:7.08661413;stroke-linecap:round;stroke-miterlimit:9.79310322;stroke-opacity:1;stroke-dasharray:none" />
    <ellipse
       stroke-miterlimit="10"
       cx="351.10001"
       cy="289.89999"
       rx="7.0999999"
       ry="7.3000002"
       id="ellipse3401"
       d="m 358.20001,289.89999 c 0,4.03168 -3.17878,7.3 -7.1,7.3 -3.92123,0 -7.1,-3.26832 -7.1,-7.3 0,-4.03167 3.17877,-7.3 7.1,-7.3 3.92122,0 7.1,3.26833 7.1,7.3 z"
       sodipodi:cx="351.10001"
       sodipodi:cy="289.89999"
       sodipodi:rx="7.0999999"
       sodipodi:ry="7.3000002"
       style="fill:#ffffff;stroke:#000000;stroke-width:7.08661413;stroke-miterlimit:9.79310322;stroke-opacity:1;stroke-dasharray:none"
       transform="matrix(-0.99999998,0,0,0.99999998,812.4433,176.31888)" />
    <ellipse
       transform="matrix(-0.98899998,-0.1482,-0.1482,0.98899998,851.5642,231.62068)"
       stroke-miterlimit="10"
       cx="351.60001"
       cy="290.20001"
       rx="19.299999"
       ry="4.1999998"
       id="ellipse3403"
       d="m 370.90001,290.20001 c 0,2.3196 -8.64091,4.2 -19.3,4.2 -10.6591,0 -19.3,-1.8804 -19.3,-4.2 0,-2.31959 8.6409,-4.2 19.3,-4.2 10.65909,0 19.3,1.88041 19.3,4.2 z"
       sodipodi:cx="351.60001"
       sodipodi:cy="290.20001"
       sodipodi:rx="19.299999"
       sodipodi:ry="4.1999998"
       style="fill:#000000;fill-opacity:1;stroke:#000000;stroke-width:7.08631563;stroke-miterlimit:9.79310322;stroke-opacity:1;stroke-dasharray:none" />
    <ellipse
       transform="matrix(-0.92319998,0.38439999,0.38439999,0.92319998,623.5493,5.1514834)"
       stroke-miterlimit="10"
       cx="522.70001"
       cy="387"
       rx="7.0999999"
       ry="7.3000002"
       id="ellipse3405"
       d="m 529.80001,387 c 0,4.03168 -3.17878,7.3 -7.1,7.3 -3.92122,0 -7.1,-3.26832 -7.1,-7.3 0,-4.03168 3.17878,-7.3 7.1,-7.3 3.92122,0 7.1,3.26832 7.1,7.3 z"
       sodipodi:cx="522.70001"
       sodipodi:cy="387"
       sodipodi:rx="7.0999999"
       sodipodi:ry="7.3000002"
       style="fill:#ffffff;stroke:#000000;stroke-width:7.08639622;stroke-miterlimit:9.79310322;stroke-opacity:1;stroke-dasharray:none" />
    <ellipse
       transform="matrix(-0.96989998,0.2433,0.2433,0.96989998,702.4618,60.718782)"
       stroke-miterlimit="10"
       cx="522.90002"
       cy="387.39999"
       rx="19.299999"
       ry="4.1999998"
       id="ellipse3407"
       d="m 542.20002,387.39999 c 0,2.3196 -8.6409,4.2 -19.3,4.2 -10.65909,0 -19.29999,-1.8804 -19.29999,-4.2 0,-2.31959 8.6409,-4.2 19.29999,-4.2 10.6591,0 19.3,1.88041 19.3,4.2 z"
       sodipodi:cx="522.90002"
       sodipodi:cy="387.39999"
       sodipodi:rx="19.299999"
       sodipodi:ry="4.1999998"
       style="fill:#000000;fill-opacity:1;stroke:#000000;stroke-width:7.08696556;stroke-miterlimit:9.79310322;stroke-opacity:1;stroke-dasharray:none" />
    <path
       d="m 420.64331,458.41887 c 6.4,0 6.4,10 0,10 -6.4,0 -6.4,-10 0,-10 z"
       id="path3409"
       inkscape:connector-curvature="0"
       style="fill:#000000;fill-opacity:1;stroke:#000000;stroke-width:7.08661413;stroke-miterlimit:9.79310322;stroke-opacity:1;stroke-dasharray:none" />
    <path
       d="m 457.44331,548.91887 c 6.4,0 6.4,10 0,10 -6.4,0 -6.4,-10 0,-10 z"
       id="path3411"
       inkscape:connector-curvature="0"
       style="fill:#000000;fill-opacity:1;stroke:#000000;stroke-width:7.08661413;stroke-miterlimit:9.79310322;stroke-opacity:1;stroke-dasharray:none" />
    <path
       d="m 323.94331,546.21887 c 6.4,0 6.4,10 0,10 -6.4,0 -6.4,-10 0,-10 z"
       id="path3413"
       inkscape:connector-curvature="0"
       style="fill:#000000;fill-opacity:1;stroke:#000000;stroke-width:7.08661413;stroke-miterlimit:9.79310322;stroke-opacity:1;stroke-dasharray:none" />
    <path
       d="m 407.44331,462.71887 c 5.1,0 5.1,8 0,8 -5.1,0 -5.1,-8 0,-8 z"
       id="path3415"
       inkscape:connector-curvature="0"
       style="fill:#1d1d1b;stroke:#000000;stroke-width:7.08661413;stroke-miterlimit:9.79310322;stroke-opacity:1;stroke-dasharray:none" />
    <path
       d="m 472.94331,545.41887 c 5.1,0 5.1,8 0,8 -5.1,0 -5.1,-8 0,-8 z"
       id="path3417"
       inkscape:connector-curvature="0"
       style="fill:#1d1d1b;stroke:#000000;stroke-width:7.08661413;stroke-miterlimit:9.79310322;stroke-opacity:1;stroke-dasharray:none" />
    <path
       d="m 271.94331,532.91887 c 6.4,0 6.4,10 0,10 -6.4,0 -6.4,-10 0,-10 z"
       id="path3419"
       inkscape:connector-curvature="0"
       style="fill:#000000;fill-opacity:1;stroke:#000000;stroke-width:7.08661413;stroke-miterlimit:9.79310322;stroke-opacity:1;stroke-dasharray:none" />
    <path
       d="m 308.44331,576.41887 c 3.9,-5.1 11.9,0.9 8,6 -3.9,5.2 -11.9,-0.8 -8,-6 z"
       id="path3421"
       inkscape:connector-curvature="0"
       style="fill:#000000;fill-opacity:1;stroke:#000000;stroke-width:7.08661413;stroke-miterlimit:9.79310322;stroke-opacity:1;stroke-dasharray:none" />
  </g>
</svg>
