<?xml version="1.0" encoding="UTF-8" standalone="no"?>
<!-- Created with Inkscape (http://www.inkscape.org/) -->

<svg
   xmlns:dc="http://purl.org/dc/elements/1.1/"
   xmlns:cc="http://creativecommons.org/ns#"
   xmlns:rdf="http://www.w3.org/1999/02/22-rdf-syntax-ns#"
   xmlns:svg="http://www.w3.org/2000/svg"
   xmlns="http://www.w3.org/2000/svg"
   xmlns:sodipodi="http://sodipodi.sourceforge.net/DTD/sodipodi-0.dtd"
   xmlns:inkscape="http://www.inkscape.org/namespaces/inkscape"
   width="210mm"
   height="297mm"
   id="svg4031"
   version="1.1"
   inkscape:version="0.48.5 r10040"
   sodipodi:docname="spock_with_background_mirrored.svg">
  <defs
     id="defs4033" />
  <sodipodi:namedview
     id="base"
     pagecolor="#ffffff"
     bordercolor="#666666"
     borderopacity="1.0"
     inkscape:pageopacity="0.0"
     inkscape:pageshadow="2"
     inkscape:zoom="1.979899"
     inkscape:cx="449.15275"
     inkscape:cy="567.98225"
     inkscape:document-units="px"
     inkscape:current-layer="layer1"
     showgrid="false"
     inkscape:window-width="1440"
     inkscape:window-height="848"
     inkscape:window-x="0"
     inkscape:window-y="23"
     inkscape:window-maximized="1" />
  <metadata
     id="metadata4036">
    <rdf:RDF>
      <cc:Work
         rdf:about="">
        <dc:format>image/svg+xml</dc:format>
        <dc:type
           rdf:resource="http://purl.org/dc/dcmitype/StillImage" />
        <dc:title />
      </cc:Work>
    </rdf:RDF>
  </metadata>
  <g
     inkscape:label="Ebene 1"
     inkscape:groupmode="layer"
     id="layer1">
    <g
       transform="translate(134.66474,19.927243)"
       id="g12036">
      <g
         transform="matrix(-1,0,0,1,471.7855,-112.55842)"
         id="g3504"
         style="stroke:#000000;stroke-opacity:1">
        <path
           id="path3506"
           d="m 220.2,522.5 c 0,3 -0.2,5.9 -0.4,8.9 -0.1,1.5 -0.2,2.9 -0.4,4.4 -0.1,1.5 -0.3,2.9 -0.5,4.4 -0.2,1.5 -0.3,2.9 -0.5,4.4 l -0.6,4.4 0,0.3 0,0.1 0,0.1 0,0 0,0 0,0 c 0,0.2 0,-0.3 0,-0.2 l 0,0.1 c 0,0 0,0.1 0,0 0,-0.1 0,-0.3 0,-0.3 0,-0.1 0,0 0.1,0.2 0.1,0.3 0.3,0.9 0.6,1.4 l 0.9,1.7 c 0.3,0.6 0.6,1.3 0.9,1.9 l -0.4,-0.3 c 0.5,0.5 1.1,0.9 1.6,1.4 0.9,0.8 0.9,2.2 0.1,3.1 -0.7,0.7 -1.7,0.9 -2.5,0.5 -0.6,-0.3 -1.3,-0.6 -1.9,-1 l -0.4,-0.3 c -0.8,-0.5 -1.4,-0.9 -2,-1.5 -0.6,-0.5 -1.2,-1.1 -1.7,-1.8 -0.5,-0.7 -1.1,-1.4 -1.5,-2.5 -0.2,-0.5 -0.4,-1.1 -0.5,-1.9 0,-0.2 0,-0.5 0,-0.8 l 0,-0.3 0,-0.1 0,-0.3 0,0 0,0 0,-0.1 0,-0.1 0.1,-0.3 0.8,-4.3 c 0.3,-1.4 0.6,-2.9 0.9,-4.3 0.3,-1.4 0.6,-2.9 1,-4.3 0.3,-1.4 0.7,-2.9 1,-4.3 0.7,-2.9 1.5,-5.7 2.4,-8.6 l 0,0 c 0.3,-0.8 1.1,-1.3 2,-1 0.5,0 0.9,0.6 0.9,1.3 z"
           inkscape:connector-curvature="0"
           style="fill:#000000;fill-opacity:1;stroke:#000000;stroke-opacity:1" />
      </g>
      <g
         transform="matrix(-1,0,0,1,471.7855,-112.55842)"
         id="g3508"
         style="stroke:#000000;stroke-opacity:1">
        <path
           id="path3510"
           d="m 229.6,513.4 c 0,0 0.5,0.2 1.3,0.4 0.9,0.3 2.1,0.6 3.6,0.8 0.7,0.1 1.6,0.3 2.4,0.3 0.2,0 0.4,0 0.6,0 l 0.2,0 0,0 0,0 0,0 c 0.3,0 -0.3,0 -0.3,0 l 0,0 0,0 0.1,0 c 0,0 0.1,0 0,0 0,0 -0.1,0 -0.1,0 -0.1,0 0,0 0,0 l 0.1,0 c 0.2,-0.1 0.4,-0.2 0.6,-0.2 1.6,-0.8 3.5,-1.7 5.4,-2.6 1.9,-0.9 3.7,-1.8 5.5,-2.7 1.8,-0.8 3.5,-1.6 5.1,-2.2 0.8,-0.3 1.5,-0.6 2.2,-0.8 0.7,-0.2 1.4,-0.4 2,-0.5 0.6,-0.1 1.3,-0.1 1.8,-0.1 0.5,0.1 0.8,0.1 0.8,0.1 1.9,0.5 3,2.3 2.6,4.2 -0.5,1.9 -2.3,3 -4.2,2.6 0,0 0,0 0.1,0 0,0 -0.1,-0.1 -0.3,-0.1 -0.3,0 -0.6,0 -1.2,0.1 -0.5,0.1 -1.1,0.2 -1.8,0.4 -2.7,0.7 -6.5,2.3 -10.1,4 -1.9,0.9 -3.7,1.8 -5.5,2.6 -0.3,0.1 -0.5,0.2 -0.7,0.3 l -0.2,0.1 c -0.1,0 -0.1,0 -0.3,0.1 -0.2,0.1 -0.3,0.1 -0.5,0.1 l -0.2,0.1 0,0 -0.3,0 -0.1,0 -0.2,0 -0.3,0 -0.4,0 c -0.3,0 -0.5,0 -0.8,0 -0.9,-0.1 -1.8,-0.1 -2.6,-0.1 -0.8,0 -1.5,0 -2.1,0 -0.6,0 -1.2,0 -1.7,0 -0.9,0.1 -1.5,0.1 -1.5,0.1 l -0.1,0 c -2.1,0.3 -4.1,-1.2 -4.3,-3.4 -0.3,-2.1 1.2,-4.1 3.4,-4.3 0.8,0.3 1.4,0.4 2,0.7 z"
           inkscape:connector-curvature="0"
           style="fill:#000000;fill-opacity:1;stroke:#000000;stroke-opacity:1" />
      </g>
      <g
         transform="matrix(-1,0,0,1,471.7855,-112.55842)"
         id="g3514"
         style="stroke:#000000;stroke-opacity:1">
        <path
           id="path3516"
           d="m 244.8,553.6 c 0,0 1.8,5.7 3.6,11.4 0.9,2.9 1.8,5.7 2.4,7.9 0.3,1.1 0.6,2 0.8,2.7 0,0.2 0.1,0.3 0.1,0.5 0,0.2 0.1,0.3 0.1,0.5 0.1,0.3 0.1,0.4 0.1,0.4 0.3,1.4 -0.6,2.7 -2,3 -1.2,0.3 -2.3,-0.4 -2.8,-1.4 l -0.4,-0.8 c 0,0 0,0 0,-0.1 0,-0.1 -0.1,-0.3 -0.2,-0.5 -0.2,-0.6 -0.5,-1.4 -0.9,-2.5 -0.8,-2.1 -1.9,-4.8 -3,-7.6 -2.2,-5.5 -4.4,-11 -4.4,-11 l 0,0 c -0.7,-1.8 0.1,-3.8 1.9,-4.6 1.8,-0.7 3.8,0.1 4.6,1.9 0,0 0.1,0.1 0.1,0.2 z"
           inkscape:connector-curvature="0"
           style="fill:#000000;fill-opacity:1;stroke:#000000;stroke-opacity:1" />
      </g>
      <g
         transform="matrix(-1,0,0,1,471.7855,-112.55842)"
         id="g3518"
         style="stroke:#000000;stroke-opacity:1">
        <path
           id="path3520"
           d="m 235.8,523.1 c 0,0 0.2,-0.3 0.7,-0.8 0.4,-0.5 1,-1.2 1.8,-2 0.4,-0.4 0.8,-0.9 1.2,-1.3 0.5,-0.5 0.9,-1 1.6,-1.5 0.3,-0.3 0.6,-0.5 1.3,-1 0.1,-0.1 0.4,-0.2 0.7,-0.4 0.1,0 0.3,-0.1 0.4,-0.1 l 0.2,0 c 0.1,0 0.1,0 0.3,0 0.3,0 0.6,0 0.9,0.1 l 0.2,0 c -0.3,-0.1 -0.1,0 -0.1,0 l 0,0 0,0 0.3,0.1 0.2,0 c 0.7,0.1 1.3,0.2 2,0.3 2.8,0.4 5.7,0.9 7.9,1.3 0.6,0.1 1.1,0.2 1.5,0.3 0.5,0.1 0.9,0.2 1.3,0.3 0.2,0.1 0.4,0.2 0.6,0.2 0.1,0 0.2,0.1 0.3,0.1 0,0 0.1,0 0.2,0.1 0.1,0 0.1,0.1 0.2,0.1 0.5,0.3 0.8,0.6 0.8,0.6 1.1,1.1 1.1,2.9 0,4 -1.1,1.1 -2.9,1.1 -4,0 0,0 0.1,0.1 0.3,0.3 0,0 0.1,0 0.1,0.1 0,0 0.1,0 0.1,0 0,0 0,0 -0.1,0 -0.1,0 -0.1,0 -0.2,-0.1 -0.2,-0.1 -0.5,-0.1 -0.9,-0.2 -0.4,-0.1 -0.8,-0.2 -1.3,-0.3 -2,-0.4 -4.8,-0.8 -7.7,-1.1 -0.8,-0.1 -1.5,-0.2 -2.3,-0.3 l -0.6,-0.1 0,0 -0.2,0 0.2,0 c 0.3,0.1 0.5,0.1 0.8,0 l 0.2,0 0.1,0 c 0.1,0 0.2,-0.1 0.3,-0.1 0.2,-0.1 0.3,-0.1 0.3,-0.1 0.1,0 -0.2,0.1 -0.3,0.3 -0.4,0.4 -0.8,0.8 -1.2,1.2 -0.4,0.4 -0.8,0.8 -1.1,1.2 -0.7,0.8 -1.2,1.4 -1.6,1.9 -0.4,0.5 -0.6,0.7 -0.6,0.7 l 0,0 c -1.1,1.3 -3,1.5 -4.3,0.4 -1.4,-1 -1.6,-2.9 -0.5,-4.2 0,0 0,0 0,0 z"
           inkscape:connector-curvature="0"
           style="fill:#000000;fill-opacity:1;stroke:#000000;stroke-opacity:1" />
      </g>
      <path
         id="path3522"
         d="m 225.0855,410.44158 c 0,0 0.3,2.7 -1.5,4 -1.8,1.3 -4.1,1.2 -4.8,-2.3"
         stroke-miterlimit="10"
         inkscape:connector-curvature="0"
         style="fill:none;stroke:#000000;stroke-width:7;stroke-linecap:round;stroke-miterlimit:10;stroke-opacity:1" />
      <g
         transform="matrix(-1,0,0,1,471.7855,-112.55842)"
         id="g3524"
         style="stroke:#000000;stroke-opacity:1">
        <path
           id="path3526"
           d="m 215,521.8 c 0,0 0,-0.1 0,0 0,0 0,0.1 0,0.1 0,0 -0.1,0 -0.1,-0.1 -0.1,-0.1 -0.1,-0.2 -0.2,-0.3 -0.1,-0.1 -0.2,-0.3 -0.4,-0.4 -0.2,-0.2 -0.4,-0.3 -0.6,-0.5 -0.3,-0.2 -0.5,-0.4 -0.9,-0.6 -0.3,-0.2 -0.7,-0.4 -1.1,-0.6 l -0.3,-0.1 c 0,0 0.1,0.1 0.1,0 l 0,0 0,0 0,0 0,0 -0.1,0 -0.2,-0.1 -0.4,-0.2 -0.3,-0.1 c -0.4,-0.1 -0.9,-0.3 -1.4,-0.4 -0.5,-0.1 -1,-0.3 -1.4,-0.4 -0.9,-0.3 -1.8,-0.4 -2.6,-0.6 -0.8,-0.2 -1.4,-0.3 -1.8,-0.3 -0.4,-0.1 -0.6,-0.1 -0.6,-0.1 l -0.2,0 c -1.9,-0.3 -3.2,-2.1 -2.9,-4 0.3,-1.7 1.8,-2.9 3.4,-2.9 0,0 0.4,0 1,0 0.6,0 1.4,0.1 2.3,0.3 1,0.2 2.1,0.4 3.2,0.7 0.6,0.2 1.2,0.4 1.8,0.6 0.6,0.2 1.2,0.5 1.9,0.8 l 0.5,0.2 0.4,0.2 0.5,0.2 0.5,0.3 c 0.6,0.3 1.2,0.7 1.8,1.2 0.6,0.4 1.1,0.9 1.6,1.4 0.5,0.5 0.9,1.1 1.2,1.6 0.3,0.6 0.6,1.1 0.8,1.7 0.2,0.5 0.3,1 0.3,1.5 0.1,0.4 0.1,0.8 0,1.1 0,0.2 0,0.3 0,0.4 0,0.1 0,0.1 0,0.1 -0.1,1.5 -1.5,2.7 -3,2.5 -1.5,-0.2 -2.9,-1.7 -2.8,-3.2 z"
           inkscape:connector-curvature="0"
           style="fill:#000000;fill-opacity:1;stroke:#000000;stroke-opacity:1" />
      </g>
      <path
         id="path3528"
         d="m 257.4855,462.74158 c 0,0 -2.3,-1.5 -4.6,-1 -2.3,0.5 -20.1,1.1 -20.1,1.1"
         stroke-miterlimit="10"
         inkscape:connector-curvature="0"
         style="fill:none;stroke:#000000;stroke-width:7;stroke-linecap:round;stroke-miterlimit:10;stroke-opacity:1" />
      <path
         id="path3530"
         d="m 250.3855,458.94158 c 0,0 -3.9,-1.5 -4.6,-1 -0.8,0.5 -5.1,2.4 -5.1,2.4"
         stroke-miterlimit="10"
         inkscape:connector-curvature="0"
         style="fill:none;stroke:#000000;stroke-width:7;stroke-linecap:round;stroke-miterlimit:10;stroke-opacity:1" />
      <path
         id="path3532"
         d="m 253.1855,459.14158 c 0,0 2.1,-2.3 2.9,-1.5 0.8,0.8 2,4.1 2,4.1"
         stroke-miterlimit="10"
         inkscape:connector-curvature="0"
         style="fill:none;stroke:#000000;stroke-width:7;stroke-linecap:round;stroke-miterlimit:10;stroke-opacity:1" />
      <path
         id="path3534"
         d="m 265.3855,409.74158 c 0,0 -8.5,-2.5 -10.8,2.3"
         stroke-miterlimit="10"
         inkscape:connector-curvature="0"
         style="fill:none;stroke:#000000;stroke-width:7;stroke-miterlimit:10;stroke-opacity:1" />
      <path
         id="path3536"
         d="m 260.7855,415.34158 c -0.7,-1.3 2.3,-5.3 2.3,-5.3"
         stroke-miterlimit="10"
         inkscape:connector-curvature="0"
         style="fill:none;stroke:#000000;stroke-width:9;stroke-linecap:round;stroke-miterlimit:10;stroke-opacity:1" />
      <path
         id="path3582"
         d="m 255.4855,466.04158 c 0,0 -13,3.7 -14.6,0.3"
         stroke-miterlimit="10"
         inkscape:connector-curvature="0"
         style="fill:none;stroke:#000000;stroke-width:7;stroke-linecap:round;stroke-miterlimit:10;stroke-opacity:1" />
      <g
         transform="matrix(-1,0,0,1,471.7855,-112.55842)"
         id="Ebene_3"
         style="stroke:#000000;stroke-opacity:1">
        <path
           id="path3639"
           d="m 200.3,498.2 c 0,0 -7.1,-15.7 9,-29 13.1,-10.8 33.2,-18.7 45.1,-17.3 19.7,2.3 50.9,20.3 52.6,34 1.6,13.7 -15.2,24.3 -15.2,27 0,2.7 -9.4,20.7 -9,24 0.3,3.3 0.6,-17.7 -4.8,-24 -5.5,-6.3 -8.4,-8.3 -12.3,-8.3 -3.9,0 0,-12.3 0,-12.3 0,0 -51.6,9.7 -58,8.3 -6.4,-1.4 -7.4,-2.4 -7.4,-2.4 z"
           stroke-miterlimit="10"
           inkscape:connector-curvature="0"
           style="fill:none;stroke:#000000;stroke-width:7;stroke-miterlimit:10;stroke-opacity:1" />
        <path
           id="path3641"
           d="M 206.1,498.9 201,507 c -0.9,2.8 -0.8,5.7 0.1,8.5 l 3.2,9.5 c 0.7,2 0.5,4.2 -0.6,6.1 -0.9,1.5 -0.9,4.5 -1.5,6.2 -0.9,2.6 8,57.3 15.4,60 7.4,2.7 23.2,6 27.7,4.3 4.5,-1.7 34.4,-23 36.7,-26 2.3,-3 8.9,-10.1 9.3,-12.3"
           stroke-miterlimit="10"
           inkscape:connector-curvature="0"
           style="fill:none;stroke:#000000;stroke-width:7;stroke-linecap:round;stroke-miterlimit:10;stroke-opacity:1" />
      </g>
      <g
         id="g10437">
        <path
           sodipodi:nodetypes="ccsccccsccsccc"
           style="fill:none;stroke:#000000;stroke-width:7.08661413;stroke-linecap:round;stroke-miterlimit:9.79310322;stroke-opacity:1;stroke-dasharray:none"
           inkscape:connector-curvature="0"
           stroke-miterlimit="10"
           d="m 233.0855,491.04158 -2.2,13 c 0,0 5.3,6.3 4.7,8.3 -0.6,2 37.5,48.7 37.5,48.7 0,0 0.8,10 -1.3,12.7 -4,5 -36.5,4.7 -36.5,4.7 l -97.62386,-1.3 c 0,0 -14.85583,-11.2863 -17.17614,-16.86599 -2.92045,-7.02289 -0.3,-42.73401 1.9,-46.13401 2.2,-3.3 36.7,-22 36.7,-22 0,0 6.5,-12.7 8.7,-12 2.2,0.7 7.8,8.7 9,9.3 1.2,0.7 29.3,13.3 34.5,15 5.3,1.7 31.44888,0.85206 14.47745,0.85206"
           id="path3496" />
        <path
           style="fill:none;stroke:#000000;stroke-width:7.08661413;stroke-linecap:round;stroke-miterlimit:9.79310322;stroke-opacity:1;stroke-dasharray:none"
           inkscape:connector-curvature="0"
           stroke-miterlimit="10"
           d="m 179.7855,440.04158 c 0,0 -8,1.7 -10,-0.3 -2,-2 -7.3,-21.3 -7.7,-24.3 -0.3,-3 -5.3,-28 -3,-32.3 2.3,-4.3 6,-7 6,-7"
           id="path3498" />
        <path
           style="fill:none;stroke:#000000;stroke-width:7.08661413;stroke-linecap:round;stroke-miterlimit:9.79310322;stroke-opacity:1;stroke-dasharray:none"
           inkscape:connector-curvature="0"
           stroke-miterlimit="10"
           d="m 165.5855,480.54158 c 0,0 6.3,-34.1 4.7,-39.4"
           id="path3500" />
        <path
           style="fill:none;stroke:#000000;stroke-width:7.08661413;stroke-miterlimit:9.79310322;stroke-opacity:1;stroke-dasharray:none"
           inkscape:connector-curvature="0"
           stroke-miterlimit="10"
           d="m 234.9855,514.24158 c 0,0 -17,6 -24.3,3.7 -7.3,-2.3 -53.3,-23.7 -54.7,-26.7"
           id="path3502" />
        <path
           style="fill:none;stroke:#000000;stroke-width:7.08661413;stroke-linecap:round;stroke-miterlimit:9.79310322;stroke-opacity:1;stroke-dasharray:none"
           inkscape:connector-curvature="0"
           stroke-miterlimit="10"
           d="m 205.7855,454.54158 c 0,0 -0.3,-15.4 -1.8,-17.1 -1.5,-1.7 -7.8,-10.4 -6.9,-13.8"
           id="path3512" />
        <path
           style="fill:none;stroke:#000000;stroke-width:7.08661413;stroke-linecap:round;stroke-miterlimit:9.79310322;stroke-opacity:1;stroke-dasharray:none"
           inkscape:connector-curvature="0"
           stroke-miterlimit="10"
           d="m 223.6855,534.04158 c 3.4,-4.5 3.9,-7.9 3.9,-7.9"
           id="path3538" />
        <path
           style="fill:none;stroke:#000000;stroke-width:7.08661413;stroke-linecap:round;stroke-miterlimit:9.79310322;stroke-opacity:1;stroke-dasharray:none"
           inkscape:connector-curvature="0"
           stroke-miterlimit="10"
           d="m 205.7855,526.64158 c 0,0 -0.7,6.2 -3.7,7.5"
           id="path3540" />
        <path
           style="fill:none;stroke:#000000;stroke-width:7.08661413;stroke-linecap:round;stroke-miterlimit:9.79310322;stroke-opacity:1;stroke-dasharray:none"
           inkscape:connector-curvature="0"
           stroke-miterlimit="10"
           d="m 236.9855,539.14158 c -0.2,4 0.5,10 -2.8,11"
           id="path3542" />
        <path
           style="fill:none;stroke:#000000;stroke-width:7.08661413;stroke-linecap:round;stroke-miterlimit:9.79310322;stroke-opacity:1;stroke-dasharray:none"
           inkscape:connector-curvature="0"
           stroke-miterlimit="10"
           d="m 214.9855,541.34158 c 0,0 -0.2,7.5 -3.2,8.8"
           id="path3544" />
        <path
           style="fill:none;stroke:#000000;stroke-width:7.08661413;stroke-linecap:round;stroke-miterlimit:9.79310322;stroke-opacity:1;stroke-dasharray:none"
           inkscape:connector-curvature="0"
           stroke-miterlimit="10"
           d="m 190.9855,540.64158 c 0,0 0.5,3 -2.7,5.3"
           id="path3546" />
        <path
           style="fill:none;stroke:#000000;stroke-width:7.08661413;stroke-linecap:round;stroke-miterlimit:9.79310322;stroke-opacity:1;stroke-dasharray:none"
           inkscape:connector-curvature="0"
           stroke-miterlimit="10"
           d="m 246.0855,557.64158 c 1.8,5.5 0.9,5.8 -2.2,10"
           id="path3548" />
        <path
           style="fill:none;stroke:#000000;stroke-width:7.08661413;stroke-linecap:round;stroke-miterlimit:9.79310322;stroke-opacity:1;stroke-dasharray:none"
           inkscape:connector-curvature="0"
           stroke-miterlimit="10"
           d="m 225.2855,558.64158 c 0,0 0,8.7 -3.2,10"
           id="path3550" />
        <path
           style="fill:none;stroke:#000000;stroke-width:7.08661413;stroke-linecap:round;stroke-miterlimit:9.79310322;stroke-opacity:1;stroke-dasharray:none"
           inkscape:connector-curvature="0"
           stroke-miterlimit="10"
           d="m 200.7855,556.54158 c 0,0 0.7,9.3 -4,10.8"
           id="path3552" />
        <path
           style="fill:none;stroke:#000000;stroke-width:7.08661413;stroke-linecap:round;stroke-miterlimit:9.79310322;stroke-opacity:1;stroke-dasharray:none"
           inkscape:connector-curvature="0"
           stroke-miterlimit="10"
           d="m 182.5855,558.34158 c 0,0 -0.7,7.8 -4.8,9.3"
           id="path3554" />
        <path
           style="fill:none;stroke:#000000;stroke-width:7.08661413;stroke-linecap:round;stroke-miterlimit:9.79310322;stroke-opacity:1;stroke-dasharray:none"
           inkscape:connector-curvature="0"
           stroke-miterlimit="10"
           d="m 173.5855,527.54158 c 0,0 -7,-16.2 -13.3,-16.5 -6.3,-0.3 -21.8,-3.3 -24,-0.3"
           id="path3556" />
        <path
           style="fill:none;stroke:#000000;stroke-width:7.08661413;stroke-linecap:round;stroke-miterlimit:9.79310322;stroke-opacity:1;stroke-dasharray:none"
           inkscape:connector-curvature="0"
           stroke-miterlimit="10"
           d="m 140.2855,521.34158 c 0,0 -14.2,2.3 -16.7,7.7"
           id="path3558" />
        <path
           style="fill:none;stroke:#000000;stroke-width:7.08661413;stroke-linecap:round;stroke-miterlimit:9.79310322;stroke-opacity:1;stroke-dasharray:none"
           inkscape:connector-curvature="0"
           stroke-miterlimit="10"
           d="m 172.2855,423.34158 c 0,0 -0.5,-8.7 2.2,-10.2 2.7,-1.5 -5.5,-11.7 -6.8,-13"
           id="path3560" />
        <path
           style="fill:none;stroke:#000000;stroke-width:7.08661413;stroke-linecap:round;stroke-miterlimit:9.79310322;stroke-opacity:1;stroke-dasharray:none"
           inkscape:connector-curvature="0"
           stroke-miterlimit="10"
           d="m 258.2855,362.84158 c 0,0 -3.2,-10.7 -6.7,-12.7"
           id="path3562" />
        <path
           style="fill:none;stroke:#000000;stroke-width:7.08661413;stroke-linecap:round;stroke-miterlimit:9.79310322;stroke-opacity:1;stroke-dasharray:none"
           inkscape:connector-curvature="0"
           stroke-miterlimit="10"
           d="m 245.0855,362.04158 c 0,0 -1.8,-13.8 -5.7,-16.2"
           id="path3564" />
        <path
           style="fill:none;stroke:#000000;stroke-width:7.08661413;stroke-linecap:round;stroke-miterlimit:9.79310322;stroke-opacity:1;stroke-dasharray:none"
           inkscape:connector-curvature="0"
           stroke-miterlimit="10"
           d="m 230.5855,360.04158 c 0,0 -1.3,-16.7 -3.7,-17.8"
           id="path3566" />
        <path
           style="fill:none;stroke:#000000;stroke-width:7.08661413;stroke-linecap:round;stroke-miterlimit:9.79310322;stroke-opacity:1;stroke-dasharray:none"
           inkscape:connector-curvature="0"
           stroke-miterlimit="10"
           d="m 211.9855,358.14158 c 0,0 1.2,-16 4.3,-17.3"
           id="path3568" />
        <path
           style="fill:none;stroke:#000000;stroke-width:7.08661413;stroke-linecap:round;stroke-miterlimit:9.79310322;stroke-opacity:1;stroke-dasharray:none"
           inkscape:connector-curvature="0"
           stroke-miterlimit="10"
           d="m 199.2855,359.64158 c 0,0 0,-8.7 3.5,-12.3"
           id="path3570" />
        <path
           style="fill:none;stroke:#000000;stroke-width:7.08661413;stroke-linecap:round;stroke-miterlimit:9.79310322;stroke-opacity:1;stroke-dasharray:none"
           inkscape:connector-curvature="0"
           stroke-miterlimit="10"
           d="m 264.7855,385.64158 c 0.8,0 4.7,-9 0.8,-13.8"
           id="path3572" />
        <path
           style="fill:none;stroke:#000000;stroke-width:7.08661413;stroke-linecap:round;stroke-miterlimit:9.79310322;stroke-opacity:1;stroke-dasharray:none"
           inkscape:connector-curvature="0"
           stroke-miterlimit="10"
           d="m 251.9855,384.14158 c 0,0 4,-8.5 1.3,-14.8"
           id="path3574" />
        <path
           style="fill:none;stroke:#000000;stroke-width:7.08661413;stroke-linecap:round;stroke-miterlimit:9.79310322;stroke-opacity:1;stroke-dasharray:none"
           inkscape:connector-curvature="0"
           stroke-miterlimit="10"
           d="m 235.0855,382.04158 c 2,0 4,-3.7 2.7,-9.8"
           id="path3576" />
        <path
           style="fill:none;stroke:#000000;stroke-width:7.08661413;stroke-linecap:round;stroke-miterlimit:9.79310322;stroke-opacity:1;stroke-dasharray:none"
           inkscape:connector-curvature="0"
           stroke-miterlimit="10"
           d="m 218.4855,378.64158 c 0,0 3.8,-2.5 3.3,-10.3"
           id="path3578" />
        <path
           style="fill:none;stroke:#000000;stroke-width:7.08661413;stroke-linecap:round;stroke-miterlimit:9.79310322;stroke-opacity:1;stroke-dasharray:none"
           inkscape:connector-curvature="0"
           stroke-miterlimit="10"
           d="m 195.4855,372.14158 c -2,7 1.5,14 1,15.7 -0.5,1.7 -11.2,-9.5 -12.8,-7.3 -1.7,2.2 1,14.8 3,15.3"
           id="path3580" />
        <path
           style="fill:none;stroke:#000000;stroke-width:7.08661413;stroke-linecap:round;stroke-miterlimit:9.79310322;stroke-opacity:1;stroke-dasharray:none"
           inkscape:connector-curvature="0"
           stroke-miterlimit="10"
           d="m 245.7855,443.44158 c 0,0 -2.9,-2.3 -4.8,-1.5"
           id="path3584" />
        <rect
           style="fill:none;stroke:#000000;stroke-width:7.08661413;stroke-linecap:round;stroke-linejoin:round;stroke-miterlimit:9.79310322;stroke-opacity:1;stroke-dasharray:none"
           id="rect5217"
           width="166.17007"
           height="252.03305"
           x="118.87856"
           y="326.85858"
           ry="27.529966" />
      </g>
    </g>
  </g>
</svg>
